<svg width="27" height="31" viewBox="0 0 27 31" fill="none" xmlns="http://www.w3.org/2000/svg">
<path d="M7.64507 17.7848C7.64507 17.5956 7.79987 17.4408 7.98906 17.4408H9.50265C9.69184 17.4408 9.84664 17.5956 9.84664 17.7848V23.6671H22.0585V17.028C22.0585 12.3358 18.2539 8.53125 13.5618 8.53125C8.86969 8.53125 5.06509 12.3358 5.06509 17.028V23.6671H7.64507V17.7848Z" fill="#EA4751" fill-opacity="0.2"/>
<path d="M3.41048 8.34191L4.7727 6.97969C4.87934 6.87305 4.87934 6.69761 4.7727 6.59097L2.43697 4.25523C2.38524 4.20402 2.3154 4.17529 2.24261 4.17529C2.16982 4.17529 2.09997 4.20402 2.04825 4.25523L0.686024 5.61746C0.634809 5.66918 0.606079 5.73903 0.606079 5.81182C0.606079 5.88461 0.634809 5.95445 0.686024 6.00618L3.02176 8.34191C3.1284 8.44855 3.3004 8.44855 3.41048 8.34191ZM26.4445 5.61746L25.0822 4.25523C25.0305 4.20402 24.9607 4.17529 24.8879 4.17529C24.8151 4.17529 24.7453 4.20402 24.6935 4.25523L22.3578 6.59097C22.3066 6.64269 22.2778 6.71254 22.2778 6.78533C22.2778 6.85812 22.3066 6.92796 22.3578 6.97969L23.72 8.34191C23.8267 8.44855 24.0021 8.44855 24.1087 8.34191L26.4445 6.00618C26.5511 5.8961 26.5511 5.7241 26.4445 5.61746ZM12.5986 3.85276H14.525C14.6764 3.85276 14.8002 3.72892 14.8002 3.57756V0.275197C14.8002 0.123839 14.6764 0 14.525 0H12.5986C12.4473 0 12.3234 0.123839 12.3234 0.275197V3.57756C12.3234 3.72892 12.4473 3.85276 12.5986 3.85276ZM24.5697 28.3453H2.55392C1.94505 28.3453 1.45314 28.8372 1.45314 29.4461V30.2717C1.45314 30.423 1.57697 30.5469 1.72833 30.5469H25.3953C25.5466 30.5469 25.6705 30.423 25.6705 30.2717V29.4461C25.6705 28.8372 25.1786 28.3453 24.5697 28.3453ZM2.58832 25.0429C2.58832 25.6518 3.08024 26.1437 3.68911 26.1437H23.4345C24.0434 26.1437 24.5353 25.6518 24.5353 25.0429V17.0278C24.5353 10.9666 19.623 6.05434 13.5618 6.05434C7.50059 6.05434 2.58832 10.9666 2.58832 17.0278V25.0429ZM5.0651 17.0278C5.0651 12.3357 8.8697 8.53111 13.5618 8.53111C18.2539 8.53111 22.0585 12.3357 22.0585 17.0278V23.6669H9.84665V17.7846C9.84665 17.5954 9.69185 17.4406 9.50265 17.4406H7.98907C7.79987 17.4406 7.64507 17.5954 7.64507 17.7846V23.6669H5.0651V17.0278Z" fill="#EA4751"/>
</svg>
