<svg width="24" height="24" viewBox="0 0 24 24" fill="none" xmlns="http://www.w3.org/2000/svg">
<path d="M21.92,8.07h-6.53V1.54h2.31V0h-2.81c-.57,0-1.03,.46-1.03,1.03v7.54c0,.57,.46,1.03,1.03,1.03h7.54c.57,0,1.03-.46,1.03-1.03v-2.81h-1.54v2.31Z" style="fill:#909a95;"/><path d="M23.46,.34c0-.19-.15-.34-.34-.34h-3.8V1.54h1.56l-3.49,3.49,1.04,1.04,3.49-3.49v1.56h1.54V.34Z" style="fill:#909a95;"/><path d="M11.24,14.5c.4-.59,.63-1.27,.66-1.97,.04-.71-.12-1.41-.45-2.03-.33-.62-.83-1.15-1.43-1.51-.61-.36-1.3-.56-2.01-.56v-.97c0-.26-.1-.51-.29-.69-.18-.18-.43-.29-.69-.29s-.51,.1-.69,.29c-.18,.18-.29,.43-.29,.69v.97h-1.95v-.97c0-.26-.1-.51-.29-.69-.18-.18-.43-.29-.69-.29s-.51,.1-.69,.29c-.18,.18-.29,.43-.29,.69v.97h-.97c-.26,0-.51,.1-.69,.29-.18,.18-.29,.43-.29,.69s.1,.51,.29,.69c.18,.18,.43,.29,.69,.29h.97v9.74h-.97c-.26,0-.51,.1-.69,.29-.18,.18-.29,.43-.29,.69s.1,.51,.29,.69c.18,.18,.43,.29,.69,.29h.97v.97c0,.26,.1,.51,.29,.69,.18,.18,.43,.29,.69,.29s.51-.1,.69-.29c.18-.18,.29-.43,.29-.69v-.97h1.95v.97c0,.26,.1,.51,.29,.69s.43,.29,.69,.29,.51-.1,.69-.29,.29-.43,.29-.69v-.97h1.95c.92,0,1.81-.32,2.51-.91,.7-.59,1.17-1.42,1.33-2.32,.15-.91-.02-1.84-.49-2.63-.47-.79-1.2-1.39-2.07-1.69h0Zm-7.12-4.13h3.89c.52,0,1.01,.21,1.38,.57,.37,.37,.57,.86,.57,1.38s-.21,1.01-.57,1.38-.86,.57-1.38,.57h-3.89v-3.89Zm5.84,9.74H4.11v-3.89h5.84c.52,0,1.01,.21,1.38,.57,.37,.37,.57,.86,.57,1.38s-.21,1.01-.57,1.38c-.37,.37-.86,.57-1.38,.57Z" style="fill:#909a95;"/>
</svg>
