<svg width="24" height="24" viewBox="0 0 24 24" fill="none" xmlns="http://www.w3.org/2000/svg">
<path d="M12.8261 12.8175C14.2068 12.8175 15.3261 13.9163 15.3261 15.2718L15.3248 16.4963C15.4962 19.5014 13.1387 21 8.76686 21C4.40915 21 2 19.521 2 16.5392V15.2718C2 13.9163 3.11927 12.8175 4.49995 12.8175H12.8261ZM19.4937 12.8175C20.8743 12.8175 21.9936 13.9163 21.9936 15.2718L21.9924 16.1334C22.143 18.8291 20.06 20.1806 16.2524 20.1806C15.7355 20.1806 15.2496 20.1558 14.7959 20.1064C15.2803 19.6689 15.6411 19.1467 15.8711 18.54L16.2524 18.5443C19.226 18.5443 20.4149 17.773 20.327 16.1783V15.2718C20.327 14.82 19.9539 14.4537 19.4937 14.4537L16.0544 14.4537C15.8856 13.8101 15.5225 13.2432 15.0301 12.8168L19.4937 12.8175ZM12.8261 14.4537H4.49995C4.03972 14.4537 3.66664 14.82 3.66664 15.2718V16.5392C3.66664 18.4143 5.21318 19.3638 8.76686 19.3638C12.3064 19.3638 13.7662 18.4358 13.6594 16.5421V15.2718C13.6594 14.82 13.2863 14.4537 12.8261 14.4537ZM8.66654 3C10.9681 3 12.8338 4.83172 12.8338 7.09127C12.8338 9.35082 10.9681 11.1825 8.66654 11.1825C6.36503 11.1825 4.49928 9.35082 4.49928 7.09127C4.49928 4.83172 6.36503 3 8.66654 3ZM16.9997 4.63624C18.8406 4.63624 20.333 6.10139 20.333 7.90873C20.333 9.71607 18.8406 11.1812 16.9997 11.1812C15.1588 11.1812 13.6664 9.71607 13.6664 7.90873C13.6664 6.10139 15.1588 4.63624 16.9997 4.63624ZM8.66654 4.63624C7.28548 4.63624 6.16591 5.7354 6.16591 7.09127C6.16591 8.44714 7.28548 9.5463 8.66654 9.5463C10.0476 9.5463 11.1672 8.44714 11.1672 7.09127C11.1672 5.7354 10.0476 4.63624 8.66654 4.63624ZM16.9997 6.27249C16.0793 6.27249 15.3331 7.00506 15.3331 7.90873C15.3331 8.8124 16.0793 9.54497 16.9997 9.54497C17.9202 9.54497 18.6664 8.8124 18.6664 7.90873C18.6664 7.00506 17.9202 6.27249 16.9997 6.27249Z" fill="#909A95"/>
</svg>
