<svg width="24" height="24" viewBox="0 0 24 24" fill="none" xmlns="http://www.w3.org/2000/svg">
<path d="M5.88724 11.8531C5.88724 11.4931 5.91111 11.1331 5.95885 10.775C5.9489 10.8446 5.93896 10.9162 5.931 10.9859C6.02648 10.2757 6.21744 9.5815 6.49592 8.92109C6.47006 8.98475 6.44222 9.0484 6.41636 9.11205C6.68688 8.47552 7.03897 7.87678 7.46067 7.32777C7.4189 7.38147 7.37713 7.43518 7.33535 7.48889C7.75706 6.94584 8.24441 6.45651 8.78745 6.0348C8.73374 6.07658 8.68004 6.11835 8.62633 6.16012C9.18131 5.73245 9.788 5.37639 10.4345 5.10387C10.3708 5.12973 10.3072 5.15758 10.2435 5.18344C10.896 4.91092 11.5822 4.72394 12.2844 4.62846C12.2148 4.6384 12.1432 4.64835 12.0736 4.65631C12.7877 4.56282 13.5137 4.56282 14.2278 4.65631C14.1582 4.64636 14.0866 4.63641 14.017 4.62846C14.7271 4.72394 15.4213 4.9149 16.0817 5.19338C16.0181 5.16752 15.9544 5.13968 15.8908 5.11382C16.5273 5.38434 17.1261 5.73643 17.6731 6.15813C17.6194 6.11636 17.5657 6.07459 17.512 6.03281C18.055 6.45452 18.5424 6.94187 18.9641 7.48491C18.9223 7.4312 18.8805 7.3775 18.8387 7.32379C19.2604 7.87081 19.6125 8.46955 19.8831 9.10609C19.8572 9.04243 19.8293 8.97878 19.8035 8.91513C20.082 9.57553 20.2709 10.2698 20.3684 10.9799C20.3585 10.9103 20.3485 10.8387 20.3406 10.769C20.4341 11.4831 20.4341 12.2092 20.3406 12.9233C20.3505 12.8537 20.3605 12.7821 20.3684 12.7125C20.2729 13.4226 20.082 14.1168 19.8035 14.7772C19.8293 14.7136 19.8572 14.6499 19.8831 14.5863C19.6125 15.2228 19.2604 15.8215 18.8387 16.3686C18.8805 16.3148 18.9223 16.2611 18.9641 16.2074C18.5424 16.7505 18.055 17.2378 17.512 17.6595C17.5657 17.6178 17.6194 17.576 17.6731 17.5342C17.1261 17.9559 16.5273 18.308 15.8908 18.5785C15.9544 18.5527 16.0181 18.5248 16.0817 18.499C15.4213 18.7774 14.7271 18.9664 14.017 19.0639C14.0866 19.0539 14.1582 19.044 14.2278 19.036C13.5058 19.1315 12.7738 19.1295 12.0517 19.034C12.1213 19.044 12.1929 19.0539 12.2625 19.0619C11.5663 18.9664 10.886 18.7814 10.2395 18.5089C10.3032 18.5348 10.3669 18.5626 10.4305 18.5885C9.78999 18.3179 9.18529 17.9659 8.63428 17.5422C8.68799 17.5839 8.7417 17.6257 8.79541 17.6675C8.24838 17.2438 7.75706 16.7545 7.33337 16.2074C7.37514 16.2611 7.41691 16.3148 7.45868 16.3686C7.44078 16.3447 7.42288 16.3208 7.40498 16.2989C7.27369 16.1259 7.14638 15.9926 6.92956 15.9329C6.7386 15.8812 6.48598 15.9051 6.3169 16.0125C6.14782 16.1219 5.99664 16.285 5.95089 16.4879C5.90713 16.6828 5.90514 16.9355 6.03046 17.1006C6.3169 17.4785 6.61726 17.8405 6.95542 18.1707C7.28562 18.495 7.64567 18.7874 8.02162 19.0579C8.73772 19.5771 9.54334 19.9749 10.3828 20.2554C12.0199 20.8024 13.838 20.8382 15.5009 20.3827C17.0067 19.969 18.4051 19.1415 19.4932 18.0216C20.5852 16.8957 21.3869 15.4675 21.7529 13.9358C22.1308 12.3564 22.0791 10.6596 21.5699 9.11404C21.0805 7.62813 20.2033 6.26555 19.0277 5.23118C17.8442 4.19084 16.394 3.44689 14.8405 3.15846C13.2432 2.86207 11.5623 2.97347 10.0406 3.56027C8.58058 4.12321 7.25977 5.04221 6.28109 6.27152C5.79375 6.88418 5.37204 7.53862 5.05974 8.26069C4.73948 9.00265 4.50476 9.76251 4.39536 10.5641C4.33767 10.9938 4.2959 11.4195 4.2959 11.8531C4.2959 12.2689 4.66191 12.6687 5.09157 12.6488C5.52322 12.6289 5.88525 12.2987 5.88724 11.8531Z" fill="#909A95"/>
<path d="M8.65229 8.92512C8.19876 9.17775 7.74324 9.43037 7.2897 9.68499C6.56962 10.0868 5.84755 10.4886 5.12747 10.8904C4.96237 10.9819 4.79528 11.0754 4.63018 11.1669C4.99221 11.2624 5.35623 11.3579 5.71826 11.4534C5.46563 10.9998 5.21301 10.5443 4.95839 10.0908C4.55857 9.36871 4.15676 8.64863 3.75494 7.92855C3.66344 7.76345 3.56995 7.59635 3.47845 7.43125C3.27555 7.06723 2.74643 6.91606 2.39037 7.14481C2.02237 7.38152 1.88711 7.845 2.10393 8.23289C2.35656 8.68642 2.60918 9.14194 2.86379 9.59547C3.26561 10.3156 3.66742 11.0356 4.06724 11.7577C4.15875 11.9228 4.25224 12.0899 4.34374 12.255C4.55658 12.6349 5.06183 12.7463 5.43182 12.5414C5.88535 12.2888 6.34087 12.0362 6.7944 11.7816C7.51448 11.3798 8.23655 10.9779 8.95663 10.5761C9.12173 10.4846 9.28882 10.3911 9.45392 10.2996C9.81794 10.0967 9.96912 9.56762 9.74037 9.21156C9.50365 8.84357 9.04216 8.7083 8.65229 8.92512ZM12.3521 7.20648C12.3521 7.77936 12.3521 8.35224 12.3521 8.92711C12.3521 9.77649 12.3521 10.6259 12.3521 11.4752C12.3521 11.8214 12.3223 12.1297 12.5889 12.4161C12.7182 12.5534 12.8554 12.6827 12.9887 12.8159C13.6033 13.4306 14.218 14.0453 14.8326 14.6599C15.2822 15.1095 15.7278 15.565 16.1813 16.0086C16.1893 16.0165 16.1972 16.0245 16.2032 16.0304C16.4976 16.3248 17.0386 16.3467 17.3291 16.0304C17.6215 15.7122 17.6433 15.2189 17.3291 14.9046C16.9213 14.4968 16.5135 14.089 16.1057 13.6812C15.4553 13.0308 14.8068 12.3823 14.1563 11.7318C14.0071 11.5827 13.858 11.4335 13.7088 11.2843C13.7863 11.4713 13.8639 11.6602 13.9415 11.8472C13.9415 11.3241 13.9415 10.8029 13.9415 10.2797C13.9415 9.44629 13.9415 8.61481 13.9415 7.78135C13.9415 7.59039 13.9415 7.39744 13.9415 7.20648C13.9415 6.79074 13.5755 6.39092 13.1458 6.41081C12.7162 6.4307 12.3521 6.7609 12.3521 7.20648Z" fill="#909A95"/>
</svg>
