<svg width="24" height="24" viewBox="0 0 24 24" fill="none" xmlns="http://www.w3.org/2000/svg">
<path d="M21.92,8.07H15.39V1.54h2.3V0H14.88a1,1,0,0,0-1,1V8.57a1,1,0,0,0,1,1h7.55a1,1,0,0,0,1-1V5.76H21.92Z" style="fill:#909a95"/><path d="M23.46.34A.34.34,0,0,0,23.12,0H19.33V1.54h1.55L17.39,5l1,1,3.49-3.5V4.13h1.54Z" style="fill:#909a95"/><path d="M14.2,12.39,9.19,8A2.5,2.5,0,0,0,5.85,8l-5,4.39a2.42,2.42,0,0,0-.63.85,2.6,2.6,0,0,0-.21,1v7.29a2.49,2.49,0,0,0,2.51,2.5h10a2.49,2.49,0,0,0,2.5-2.5v-7.3a2.64,2.64,0,0,0-.21-1A2.59,2.59,0,0,0,14.2,12.39Zm-5,10H5.85V18.22a.78.78,0,0,1,.24-.58.83.83,0,0,1,.59-.25H8.35a.82.82,0,0,1,.59.25.79.79,0,0,1,.25.58Zm4.17-.84a.87.87,0,0,1-.24.59.83.83,0,0,1-.59.25H10.86V18.22a2.53,2.53,0,0,0-2.51-2.5H6.68a2.52,2.52,0,0,0-1.77.74,2.47,2.47,0,0,0-.73,1.76V22.4H2.51a.8.8,0,0,1-.59-.25.83.83,0,0,1-.25-.59v-7.3a1,1,0,0,1,.07-.34A1,1,0,0,1,2,13.64L7,9.26a.79.79,0,0,1,.55-.21.81.81,0,0,1,.55.21l5,4.38a.83.83,0,0,1,.21.28.8.8,0,0,1,.07.34Z" style="fill:#909a95"/>
</svg>
