<svg width="19" height="22" viewBox="0 0 19 22" fill="none" xmlns="http://www.w3.org/2000/svg">
<path d="M17.5183 10.9193C17.2524 10.9193 17.0367 11.1362 17.0367 11.4036V20.0315H11.8682V14.6155C11.8682 14.3481 11.6525 14.1312 11.3865 14.1312H7.61355C7.3476 14.1312 7.13189 14.3481 7.13189 14.6155V18.91C7.13189 19.1774 7.3476 19.3943 7.61355 19.3943C7.87951 19.3943 8.09521 19.1774 8.09521 18.91V15.0997H10.9049V20.0315H1.96331V8.17783L9.49996 2.10501L17.2171 8.32319C17.4247 8.49051 17.7278 8.45677 17.8941 8.24813C18.0604 8.0394 18.0271 7.73471 17.8195 7.56739L9.80116 1.10642C9.62519 0.964526 9.37473 0.964526 9.19876 1.10642L1.18046 7.56739C1.06639 7.65932 1 7.79823 1 7.94529V20.5157C1 20.7831 1.21562 21 1.48166 21H17.5183C17.7844 21 18 20.7831 18 20.5157V11.4036C18 11.1361 17.7844 10.9193 17.5183 10.9193Z" fill="white" stroke="white" stroke-width="0.5"/>
</svg>
