<svg width="140" height="57" viewBox="0 0 140 57" fill="none" xmlns="http://www.w3.org/2000/svg">
<path d="M104 32C104 41.5 89.6731 37 72 37C54.3269 37 40 40.5 40 32C40 14.3269 54.3269 0 72 0C89.6731 0 104 14.3269 104 32Z" fill="#244B3C"/>
<path d="M2 36H7.49734" stroke="#47EAAF" stroke-width="2.27273" stroke-linecap="round" stroke-linejoin="round"/>
<path d="M133 36H138.497" stroke="#47EAAF" stroke-width="2.27273" stroke-linecap="round" stroke-linejoin="round"/>
<rect x="26" y="37" width="95" height="1" fill="#1B231F"/>
<path d="M13 36H127" stroke="#47EAAF" stroke-width="2.27273" stroke-linecap="round" stroke-linejoin="round"/>
<circle cx="70.5" cy="31.5" r="16.5" fill="#1B231F"/>
<path d="M91.25 51.2499L82.6518 42.6364L91.25 51.2499ZM87.4167 31.1249C87.4167 35.4457 85.7002 39.5896 82.645 42.6449C79.5897 45.7001 75.4458 47.4166 71.125 47.4166C66.8042 47.4166 62.6603 45.7001 59.6051 42.6449C56.5498 39.5896 54.8333 35.4457 54.8333 31.1249C54.8333 26.8041 56.5498 22.6603 59.6051 19.605C62.6603 16.5497 66.8042 14.8333 71.125 14.8333C75.4458 14.8333 79.5897 16.5497 82.645 19.605C85.7002 22.6603 87.4167 26.8041 87.4167 31.1249V31.1249Z" stroke="#47EAAF" stroke-width="2" stroke-linecap="round"/>
<path d="M69.968 34.7634C69.84 34.7634 69.728 34.7183 69.632 34.6282C69.536 34.538 69.488 34.4329 69.488 34.3127V33.5915C69.568 32.8854 69.8 32.2695 70.184 31.7437C70.584 31.2028 71.144 30.5869 71.864 29.8958C72.392 29.415 72.792 29.0019 73.064 28.6563C73.336 28.3108 73.496 27.9577 73.544 27.5972C73.608 26.9812 73.392 26.493 72.896 26.1324C72.4 25.7568 71.8 25.569 71.096 25.569C69.528 25.569 68.584 26.2977 68.264 27.7549C68.152 28.1005 67.92 28.2732 67.568 28.2732H65.528C65.368 28.2732 65.24 28.2282 65.144 28.138C65.048 28.0329 65 27.8977 65 27.7324C65.032 26.9061 65.296 26.1324 65.792 25.4113C66.288 24.6901 67.008 24.1117 67.952 23.6761C68.896 23.2254 70 23 71.264 23C72.592 23 73.68 23.2028 74.528 23.6085C75.392 23.9991 76.016 24.5023 76.4 25.1183C76.8 25.7343 77 26.3728 77 27.0338C77 27.8 76.816 28.461 76.448 29.0169C76.096 29.5577 75.56 30.1887 74.84 30.9099C74.328 31.4357 73.928 31.8864 73.64 32.262C73.368 32.6225 73.184 33.0131 73.088 33.4338C73.024 33.8094 72.984 34.0648 72.968 34.2C72.84 34.5756 72.624 34.7634 72.32 34.7634H69.968ZM69.896 39C69.736 39 69.6 38.9474 69.488 38.8423C69.376 38.7371 69.32 38.6094 69.32 38.4592V36.4986C69.32 36.3484 69.376 36.2207 69.488 36.1155C69.6 35.9953 69.736 35.9352 69.896 35.9352H72.224C72.4 35.9352 72.544 35.9878 72.656 36.093C72.768 36.1981 72.824 36.3333 72.824 36.4986V38.4592C72.824 38.6094 72.768 38.7371 72.656 38.8423C72.544 38.9474 72.4 39 72.224 39H69.896Z" fill="#47EAAF"/>
</svg>
