<svg width="10" height="12" viewBox="0 0 10 12" fill="none" xmlns="http://www.w3.org/2000/svg">
<path d="M8.53566 8.92616L7.85402 9.63119C7.35155 10.1465 6.69978 10.8094 5.89813 11.6202C5.65719 11.8638 5.33515 12 5 12C4.66485 12 4.34281 11.8638 4.10187 11.6202L2.09716 9.58074C1.84507 9.32191 1.63432 9.10392 1.46434 8.92616C0.765114 8.19487 0.288946 7.26316 0.0960495 6.24887C-0.0968474 5.23457 0.00219026 4.18323 0.380639 3.2278C0.759087 2.27236 1.39995 1.45574 2.22219 0.881202C3.04443 0.30666 4.01111 0 5 0C5.98889 0 6.95557 0.30666 7.77781 0.881202C8.60005 1.45574 9.24091 2.27236 9.61936 3.2278C9.99781 4.18323 10.0968 5.23457 9.90395 6.24887C9.71105 7.26316 9.23489 8.19487 8.53566 8.92616ZM6.43563 5.39378C6.43563 4.9956 6.28437 4.61372 6.01514 4.33217C5.74591 4.05061 5.38075 3.89243 5 3.89243C4.61925 3.89243 4.25409 4.05061 3.98486 4.33217C3.71563 4.61372 3.56437 4.9956 3.56437 5.39378C3.56437 5.79197 3.71563 6.17384 3.98486 6.4554C4.25409 6.73695 4.61925 6.89513 5 6.89513C5.38075 6.89513 5.74591 6.73695 6.01514 6.4554C6.28437 6.17384 6.43563 5.79197 6.43563 5.39378Z" fill="#04C290"/>
</svg>
