<svg width="42" height="42" viewBox="0 0 42 42" fill="none" xmlns="http://www.w3.org/2000/svg">
<path d="M40.9852 21.0177C40.9852 2.75433 18.3464 -5.98052 6.11879 7.65594C-1.26651 15.8927 -0.573305 28.5158 7.63532 35.8794C20.4224 47.3509 40.9852 38.3118 40.9852 21.0177ZM20.9617 38.2019C11.6146 38.2019 3.79412 30.6091 3.79412 20.9902C3.79412 6.04327 21.5096 -1.63333 32.4809 8.20891C44.0247 18.5651 36.9814 38.2019 20.9617 38.2019Z" fill="#67736D" stroke="#1B231F" stroke-width="0.75"/>
<path d="M30.4968 20.5986C30.4968 19.8471 29.8876 19.2379 29.1361 19.2379L22.3331 19.2379L22.3331 12.4349C22.3331 11.6834 21.7239 11.0743 20.9724 11.0743C20.221 11.0743 19.6118 11.6834 19.6118 12.4349L19.6118 19.2379L12.8113 19.2379C12.0598 19.2379 11.4507 19.8471 11.4507 20.5986C11.4507 21.35 12.0598 21.9592 12.8113 21.9592L19.6118 21.9592L19.6118 28.7617C19.6118 29.5131 20.221 30.1223 20.9724 30.1223C21.7239 30.1223 22.3331 29.5131 22.3331 28.7617L22.3331 21.9592L29.1361 21.9592C29.8876 21.9592 30.4967 21.35 30.4968 20.5986Z" fill="#67736D" stroke="#1B231F" stroke-width="0.75"/>
</svg>
