<svg width="24" height="24" viewBox="0 0 24 24" fill="none" xmlns="http://www.w3.org/2000/svg">
<path d="M13.5269 20.1464C14.5566 20.1143 15.4576 19.2776 15.7923 18.0548C15.9983 17.3147 15.9468 16.7998 15.818 16.4459C15.9725 16.3171 16.1012 16.1562 16.2042 15.9954C16.6161 15.4161 16.925 14.4508 16.7448 13.6141C16.7191 13.5176 16.6933 13.4532 16.6676 13.3567C16.7191 13.2923 16.7705 13.2602 16.822 13.1958C17.2339 12.7453 17.5171 12.1017 17.6201 11.3938C17.6458 11.2329 17.6458 11.0398 17.6458 10.8789H20.1686C21.1984 10.8789 21.9449 10.2353 22.1508 9.10908C22.2796 8.43332 22.1508 7.75757 21.8162 7.2427C21.6378 6.97187 21.4138 6.75358 21.1602 6.6034C20.9065 6.45322 20.6295 6.37484 20.3488 6.37387H13.0635C12.8576 5.37633 12.2398 4.57186 11.4417 4.31443C11.0813 4.18571 10.7467 4.18571 10.4377 4.21789H7.27134C6.1129 4.21789 5.16041 4.82929 4.20791 5.44069L4.10494 5.50504C3.17819 6.08426 2.53461 7.14617 2.30292 8.36896C2.19995 8.88383 2.19995 9.33433 2.19995 9.81701V14.9335C2.19995 16.1241 2.5861 17.2503 3.28116 18.0548C4.18217 19.1489 5.49507 19.5994 6.78222 19.889C7.9664 20.1786 9.04761 20.1786 10.2318 20.1464H13.5269ZM10.1803 18.6984C9.07336 18.6984 8.04363 18.7306 6.98817 18.4731C5.88121 18.1835 4.74852 17.8296 4.05345 16.9929C3.59008 16.4459 3.35839 15.7057 3.33265 14.9013V9.81701C3.33265 9.43087 3.33265 9.04472 3.38413 8.72293C3.53859 7.88628 3.97622 7.21052 4.59406 6.7922L4.72277 6.69566C5.5723 6.14862 6.37033 5.63376 7.2456 5.63376H10.4377C10.6952 5.63376 10.9269 5.63376 11.1071 5.69812C11.416 5.79465 11.6734 6.05209 11.8021 6.37387H9.22782C8.9189 6.37387 8.63572 6.69566 8.63572 7.11399C8.63572 7.50013 8.89316 7.8541 9.22782 7.8541H20.3231C20.5548 7.8541 20.7607 7.98282 20.8894 8.20807C20.9667 8.33678 21.0439 8.56204 20.9924 8.85165C20.9152 9.26997 20.632 9.49522 20.1429 9.49522H14.8656C14.5566 9.49522 14.2735 9.81701 14.2735 10.2353C14.2735 10.6215 14.5309 10.9755 14.8656 10.9755H16.4874C16.4874 11.0398 16.5131 11.1363 16.4874 11.2329C16.4359 11.5868 16.2814 11.9408 16.0755 12.1661C15.7151 12.5522 15.3032 12.5844 14.6339 12.5844H14.4279C14.119 12.5844 13.8358 12.9062 13.8358 13.3245C13.8358 13.7107 14.0933 14.0646 14.4279 14.0646H15.3289C15.4319 14.0646 15.5606 14.0646 15.6378 14.0968C15.6893 14.3542 15.5349 14.8047 15.3289 15.1265C15.0972 15.4805 14.7111 15.7057 14.3507 15.7057H13.8358C13.5269 15.7057 13.2437 16.0275 13.2437 16.4459C13.2437 16.8642 13.5012 17.186 13.8358 17.186H14.7626C14.7883 17.2182 14.7883 17.379 14.7111 17.733C14.5309 18.3766 14.0418 18.7949 13.5012 18.8271C12.9348 18.6984 10.4377 18.6984 10.1803 18.6984Z" fill="#909A95"/>
<path fill-rule="evenodd" clip-rule="evenodd" d="M13.527 20.3464H10.2346C9.04999 20.3786 7.94698 20.3795 6.73652 20.0837C5.44173 19.7922 4.0734 19.3301 3.12832 18.1837C2.39859 17.3381 2 16.1643 2 14.9334L2 9.81018C2 9.33162 2 8.86462 2.10666 8.33073C2.34647 7.0663 3.01519 5.95031 3.99899 5.33544L4.10094 5.27172L4.1217 5.25839C5.05857 4.65697 6.05413 4.01788 7.27139 4.01788H10.4275C10.7485 3.98523 11.112 3.98491 11.5061 4.12503C12.3445 4.39688 12.9759 5.19966 13.2228 6.17387H20.3489C20.667 6.17497 20.9794 6.26392 21.2621 6.43129C21.5444 6.59845 21.7899 6.83905 21.9833 7.13268L21.9839 7.13369C22.3487 7.69487 22.4849 8.42345 22.3475 9.14567C22.238 9.74403 21.9817 10.2296 21.6012 10.5661C21.2196 10.9036 20.7269 11.0789 20.1687 11.0789H17.8444C17.8419 11.1924 17.8353 11.3139 17.8178 11.424C17.8177 11.4244 17.8177 11.4249 17.8176 11.4254L17.6201 11.3938M17.6459 10.8789L20.1687 10.8789C21.1984 10.8789 21.945 10.2353 22.1509 9.10907C22.2796 8.43331 22.1509 7.75756 21.8162 7.24269C21.6378 6.97186 21.4138 6.75357 21.1602 6.60339C20.9066 6.45321 20.6295 6.37484 20.3489 6.37387H13.0636C12.8576 5.37632 12.2398 4.57185 11.4418 4.31442C11.0814 4.1857 10.7467 4.1857 10.4378 4.21788H7.27139C6.11295 4.21788 5.16046 4.82928 4.20796 5.44068L4.10499 5.50504C3.17824 6.08426 2.53466 7.14616 2.30297 8.36896C2.2 8.88382 2.2 9.33432 2.2 9.817V14.9334C2.2 16.1241 2.58615 17.2503 3.28121 18.0548C4.18222 19.1489 5.49512 19.5994 6.78227 19.889C7.96645 20.1786 9.04766 20.1786 10.2318 20.1464H13.527C14.5567 20.1142 15.4577 19.2776 15.7924 18.0548C15.9983 17.3147 15.9468 16.7998 15.8181 16.4459C15.9726 16.3171 16.1013 16.1562 16.2042 15.9953C16.6161 15.4161 16.925 14.4508 16.7448 13.6141C16.732 13.5658 16.7191 13.5256 16.7062 13.4854C16.6934 13.4452 16.6805 13.4049 16.6676 13.3567C16.6934 13.3245 16.7191 13.3004 16.7448 13.2762C16.7706 13.2521 16.7963 13.228 16.8221 13.1958M16.9738 13.3262C16.9445 13.3621 16.9156 13.3902 16.8927 13.4118C16.894 13.416 16.8954 13.4202 16.8967 13.4244L16.8971 13.4257C16.9098 13.4654 16.924 13.5095 16.9381 13.5626L16.9406 13.5719C17.1349 14.4739 16.805 15.4932 16.3701 16.1073C16.2825 16.2436 16.1754 16.3833 16.0481 16.5075C16.1587 16.8957 16.1777 17.4158 15.9851 18.1081C15.6344 19.3888 14.6753 20.3106 13.5332 20.3463L13.527 20.3464M4.0535 16.9929C4.74857 17.8295 5.88126 18.1835 6.98822 18.4731C7.93749 18.7046 8.86595 18.7019 9.8485 18.699C9.95841 18.6987 10.069 18.6984 10.1804 18.6984C10.4379 18.6984 12.9349 18.6984 13.5012 18.8271C14.0418 18.7949 14.5309 18.3766 14.7111 17.733C14.7884 17.379 14.7884 17.2181 14.7626 17.186H13.8359C13.5012 17.186 13.2438 16.8642 13.2438 16.4459C13.2438 16.0275 13.527 15.7057 13.8359 15.7057H14.3507C14.7111 15.7057 15.0973 15.4805 15.329 15.1265C15.5349 14.8047 15.6894 14.3542 15.6379 14.0968C15.5607 14.0646 15.4319 14.0646 15.329 14.0646H14.428C14.0933 14.0646 13.8359 13.7106 13.8359 13.3245C13.8359 12.9062 14.1191 12.5844 14.428 12.5844H14.6339C15.3032 12.5844 15.7151 12.5522 16.0755 12.1661C16.2815 11.9408 16.4359 11.5868 16.4874 11.2329C16.5054 11.1656 16.4983 11.0983 16.4924 11.0419C16.4898 11.0174 16.4874 10.9949 16.4874 10.9754H14.8656C14.5309 10.9754 14.2735 10.6215 14.2735 10.2353C14.2735 9.817 14.5567 9.49522 14.8656 9.49522H20.1429C20.6321 9.49522 20.9152 9.26996 20.9925 8.85164C21.0439 8.56203 20.9667 8.33678 20.8895 8.20806C20.7608 7.98281 20.5548 7.85409 20.3231 7.85409H9.22786C8.8932 7.85409 8.63577 7.50013 8.63577 7.11398C8.63577 6.69565 8.91895 6.37387 9.22786 6.37387H11.8022C11.7742 6.30382 11.74 6.23682 11.7006 6.17387C11.5589 5.94762 11.3488 5.77363 11.1071 5.69811C10.9269 5.63375 10.6952 5.63375 10.4378 5.63375H7.24565C6.37189 5.63375 5.5751 6.14684 4.72722 6.69282L4.72282 6.69565L4.59411 6.79219C3.97627 7.21052 3.53864 7.88627 3.38418 8.72292C3.3327 9.04471 3.3327 9.43085 3.3327 9.817V14.9013C3.35844 15.7057 3.59013 16.4459 4.0535 16.9929ZM3.5813 8.75687C3.53321 9.0593 3.5327 9.42719 3.5327 9.817V14.898C3.55791 15.669 3.77985 16.3604 4.20611 16.8636L4.20735 16.8651C4.85557 17.6453 5.92401 17.9879 7.03722 18.2792C7.9609 18.5042 8.86408 18.5017 9.84954 18.499C9.95876 18.4987 10.069 18.4984 10.1804 18.4984C10.3096 18.4984 11 18.4984 11.7294 18.5145C12.094 18.5226 12.4699 18.5347 12.791 18.553C13.0873 18.5699 13.3512 18.5926 13.515 18.6255C13.9446 18.5878 14.3574 18.2474 14.517 17.6846C14.5448 17.5565 14.5613 17.4584 14.57 17.386H13.8359C13.3514 17.386 13.0438 16.9307 13.0438 16.4459C13.0438 15.955 13.3821 15.5057 13.8359 15.5057H14.3507C14.6325 15.5057 14.9599 15.3246 15.1611 15.0179C15.2542 14.8721 15.3366 14.6956 15.3891 14.5278C15.4206 14.427 15.4386 14.3384 15.4451 14.2662C15.4084 14.2647 15.3693 14.2646 15.329 14.2646H14.428C14.1853 14.2646 13.9833 14.1357 13.8485 13.962C13.7139 13.7888 13.6359 13.5602 13.6359 13.3245C13.6359 12.8336 13.9742 12.3844 14.428 12.3844H14.6339C15.3067 12.3844 15.6334 12.3462 15.9286 12.0303C16.1022 11.8401 16.2427 11.5261 16.2895 11.2041L16.2912 11.1926L16.2942 11.1813C16.2947 11.1794 16.2951 11.1775 16.2956 11.1754H14.8656C14.6229 11.1754 14.421 11.0465 14.2861 10.8729C14.1516 10.6996 14.0735 10.471 14.0735 10.2353C14.0735 9.74445 14.4118 9.29522 14.8656 9.29522H20.1429C20.358 9.29522 20.5038 9.24575 20.6004 9.17161C20.6948 9.09921 20.764 8.98673 20.7957 8.81581C20.8374 8.58019 20.7737 8.40377 20.718 8.31096L20.7158 8.30731C20.6175 8.13535 20.4732 8.05409 20.3231 8.05409H9.22786C8.98516 8.05409 8.78322 7.9252 8.64835 7.7515C8.51384 7.57827 8.43577 7.34968 8.43577 7.11398C8.43577 6.6231 8.77406 6.17387 9.22786 6.17387H11.455C11.3432 6.03754 11.2009 5.93695 11.0475 5.88901L11.0398 5.88661C10.8993 5.83643 10.7072 5.83375 10.4378 5.83375H7.24565C6.44252 5.83375 5.69819 6.30549 4.83711 6.85994L4.70637 6.95799C4.13709 7.34345 3.72723 7.96955 3.5813 8.75687Z" fill="#909A95"/>
</svg>
