<svg width="24" height="24" viewBox="0 0 24 24" fill="none" xmlns="http://www.w3.org/2000/svg">
<path fill-rule="evenodd" clip-rule="evenodd" d="M5.22581 3C4.00095 3 3 4.00095 3 5.22581V6C3 6.37324 3.30418 6.67742 3.67742 6.67742H6.09677V18.7742C6.09677 19.9991 7.09772 21 8.32258 21H18.7742C19.9991 21 21 19.9991 21 18.7742C21 18.4009 20.6958 18.0968 20.3226 18.0968H17.9032V5.22581C17.9032 4.00095 16.9023 3 15.6774 3H5.22581ZM4.35484 5.22581C4.35484 4.74744 4.74744 4.35484 5.22581 4.35484C5.70418 4.35484 6.09677 4.74744 6.09677 5.22581V5.32258H4.35484V5.22581ZM7.45161 5.22581C7.45161 4.90781 7.38316 4.61714 7.26994 4.35484H15.6774C16.1558 4.35484 16.5484 4.74744 16.5484 5.22581V18.0968H9.87097C9.49773 18.0968 9.19355 18.4009 9.19355 18.7742C9.19355 19.2526 8.80095 19.6452 8.32258 19.6452C7.84421 19.6452 7.45161 19.2526 7.45161 18.7742V5.22581ZM9.09675 8.41936C8.72351 8.41936 8.41933 8.72354 8.41933 9.09678C8.41933 9.47002 8.72351 9.7742 9.09675 9.7742H13.3548C13.7281 9.7742 14.0322 9.47002 14.0322 9.09678C14.0322 8.72354 13.7281 8.41936 13.3548 8.41936H9.09675ZM9.09678 11.3226C8.72353 11.3226 8.41936 11.6268 8.41936 12C8.41936 12.3732 8.72353 12.6774 9.09678 12.6774H14.9032C15.2765 12.6774 15.5806 12.3732 15.5806 12C15.5806 11.6268 15.2765 11.3226 14.9032 11.3226H9.09678ZM9.09678 13.2581C8.72353 13.2581 8.41936 13.5622 8.41936 13.9355C8.41936 14.3087 8.72353 14.6129 9.09678 14.6129H13.3548C13.7281 14.6129 14.0323 14.3087 14.0323 13.9355C14.0323 13.5622 13.7281 13.2581 13.3548 13.2581H9.09678ZM10.3728 19.6452C10.3996 19.5823 10.4234 19.5178 10.4443 19.4516H19.3166C19.1648 19.573 18.9763 19.6452 18.7742 19.6452H10.3728Z" fill="#909A95"/>
</svg>
