<svg width="24" height="24" viewBox="0 0 24 24" fill="none" xmlns="http://www.w3.org/2000/svg">
<path d="M19.8571 20H4.14286C3.57473 19.9993 3.03005 19.7462 2.62832 19.2963C2.22659 18.8463 2.00062 18.2363 2 17.6V6.4C2.00062 5.76369 2.22659 5.15365 2.62832 4.70372C3.03005 4.25378 3.57473 4.0007 4.14286 4H19.8571C20.4253 4.0007 20.97 4.25378 21.3717 4.70372C21.7734 5.15365 21.9994 5.76369 22 6.4V17.6C21.9994 18.2363 21.7734 18.8463 21.3717 19.2963C20.97 19.7462 20.4253 19.9993 19.8571 20ZM4.14286 5.6C3.95345 5.60013 3.77184 5.68445 3.63791 5.83446C3.50398 5.98446 3.42868 6.18787 3.42857 6.4V17.6C3.42868 17.8121 3.50398 18.0155 3.63791 18.1655C3.77184 18.3155 3.95345 18.3999 4.14286 18.4H19.8571C20.0465 18.3999 20.2282 18.3155 20.3621 18.1655C20.496 18.0155 20.5713 17.8121 20.5714 17.6V6.4C20.5713 6.18787 20.496 5.98446 20.3621 5.83446C20.2282 5.68445 20.0465 5.60013 19.8571 5.6H4.14286Z" fill="#909A95"/>
<path d="M8.42863 13.6C8.33482 13.6001 8.24191 13.5795 8.15524 13.5392C8.06858 13.499 7.98987 13.44 7.92363 13.3656L5.06649 10.1656C5.00013 10.0913 4.94749 10.0032 4.91158 9.90611C4.87566 9.80906 4.85718 9.70504 4.85718 9.59998C4.85718 9.49493 4.87566 9.3909 4.91158 9.29385C4.94749 9.1968 5.00013 9.10863 5.06649 9.03438L6.49506 7.43438C6.56136 7.36006 6.64008 7.30111 6.72673 7.26089C6.81338 7.22067 6.90626 7.19997 7.00006 7.19998H9.8572C9.951 7.19997 10.0439 7.22067 10.1305 7.26089C10.2172 7.30111 10.2959 7.36006 10.3622 7.43438L11.7908 9.03438C11.8571 9.10863 11.9098 9.1968 11.9457 9.29385C11.9816 9.3909 12.0001 9.49493 12.0001 9.59998C12.0001 9.70504 11.9816 9.80906 11.9457 9.90611C11.9098 10.0032 11.8571 10.0913 11.7908 10.1656L8.93363 13.3656C8.8674 13.44 8.78868 13.499 8.70202 13.5392C8.61535 13.5795 8.52244 13.6001 8.42863 13.6ZM6.58156 9.59998L8.42863 11.6687L10.2757 9.59998L9.56142 8.79998H7.29585L6.58156 9.59998ZM18.4286 8.79998H14.1429C13.9535 8.79998 13.7718 8.7157 13.6378 8.56567C13.5039 8.41564 13.4286 8.21215 13.4286 7.99998C13.4286 7.78781 13.5039 7.58433 13.6378 7.4343C13.7718 7.28427 13.9535 7.19998 14.1429 7.19998H18.4286C18.6181 7.19998 18.7998 7.28427 18.9337 7.4343C19.0677 7.58433 19.1429 7.78781 19.1429 7.99998C19.1429 8.21215 19.0677 8.41564 18.9337 8.56567C18.7998 8.7157 18.6181 8.79998 18.4286 8.79998ZM15.5715 16.8H14.1429C13.9535 16.8 13.7718 16.7157 13.6378 16.5657C13.5039 16.4156 13.4286 16.2122 13.4286 16C13.4286 15.7878 13.5039 15.5843 13.6378 15.4343C13.7718 15.2843 13.9535 15.2 14.1429 15.2H15.5715C15.7609 15.2 15.9426 15.2843 16.0766 15.4343C16.2105 15.5843 16.2858 15.7878 16.2858 16C16.2858 16.2122 16.2105 16.4156 16.0766 16.5657C15.9426 16.7157 15.7609 16.8 15.5715 16.8ZM11.2858 16.8H5.57149C5.38205 16.8 5.20037 16.7157 5.06641 16.5657C4.93246 16.4156 4.8572 16.2122 4.8572 16C4.8572 15.7878 4.93246 15.5843 5.06641 15.4343C5.20037 15.2843 5.38205 15.2 5.57149 15.2H11.2858C11.4752 15.2 11.6569 15.2843 11.7909 15.4343C11.9248 15.5843 12.0001 15.7878 12.0001 16C12.0001 16.2122 11.9248 16.4156 11.7909 16.5657C11.6569 16.7157 11.4752 16.8 11.2858 16.8Z" fill="#909A95"/>
<path d="M18.4284 16.8C18.8229 16.8 19.1427 16.4418 19.1427 16C19.1427 15.5582 18.8229 15.2 18.4284 15.2C18.0339 15.2 17.7141 15.5582 17.7141 16C17.7141 16.4418 18.0339 16.8 18.4284 16.8Z" fill="#909A95"/>
</svg>
