<svg width="24" height="24" viewBox="0 0 24 24" fill="none" xmlns="http://www.w3.org/2000/svg">
<path d="M12.0005 17.0008C8.46751 17.0008 5.59351 14.3122 5.59351 11.004C5.59351 7.69568 8.46751 5.00708 12.0005 5.00708C15.5335 5.00708 18.4075 7.69568 18.4075 11.004C18.4075 14.3122 15.5335 17.0008 12.0005 17.0008ZM12.0005 7.00604C9.47433 7.00604 7.42408 8.79511 7.42408 11.004C7.42408 13.2128 9.47433 15.0019 12.0005 15.0019C14.5267 15.0019 16.577 13.2128 16.577 11.004C16.577 8.79511 14.5267 7.00604 12.0005 7.00604Z" fill="#909A95"/>
<path d="M7.42408 18.9998C7.30362 19.0005 7.18421 18.9753 7.0727 18.9256C6.96118 18.8758 6.85975 18.8026 6.77423 18.7099L4.94365 16.711C4.77318 16.5237 4.67749 16.2704 4.67749 16.0063C4.67749 15.7423 4.77318 15.489 4.94365 15.3017L6.77423 13.3027C6.94932 13.139 7.17455 13.0534 7.40491 13.0632C7.63527 13.0729 7.85378 13.1771 8.01679 13.3551C8.1798 13.5332 8.27529 13.7718 8.28419 14.0233C8.29309 14.2749 8.21473 14.5208 8.06478 14.712L6.88406 16.0013L8.06478 17.2907C8.19331 17.4299 8.28115 17.6076 8.3172 17.8013C8.35325 17.995 8.33589 18.196 8.26731 18.379C8.19873 18.5619 8.08201 18.7185 7.93192 18.829C7.78183 18.9395 7.6051 18.9989 7.42408 18.9998Z" fill="#909A95"/>
<path d="M2.84753 18.9998C2.6334 19.0045 2.42454 18.9271 2.2573 18.781C2.09006 18.6349 1.97503 18.4294 1.93224 18.2002L1.01695 13.2028C0.976132 12.9744 1.00957 12.7376 1.11149 12.5333C1.21341 12.3289 1.37743 12.1698 1.57528 12.0834L6.15172 10.0844C6.37748 9.98636 6.62967 9.99023 6.85281 10.0952C7.07596 10.2002 7.25178 10.3976 7.3416 10.6441C7.43141 10.8907 7.42787 11.1661 7.33175 11.4097C7.23562 11.6534 7.05479 11.8454 6.82903 11.9435L2.97567 13.6226L3.76282 17.8004C3.78941 17.9319 3.79141 18.0678 3.76869 18.2001C3.74598 18.3325 3.69902 18.4584 3.63064 18.5704C3.56226 18.6824 3.47386 18.7782 3.37074 18.852C3.26763 18.9258 3.15193 18.976 3.03059 18.9998H2.84753ZM2.84753 10.0045C2.70199 10.0049 2.55846 9.96739 2.42885 9.89511C2.29924 9.82282 2.18728 9.71783 2.10227 9.58884C2.01725 9.45985 1.96163 9.31058 1.94002 9.15342C1.91841 8.99625 1.93143 8.83573 1.978 8.68516L2.89329 5.68673C2.93449 5.55017 3.00219 5.42493 3.09176 5.31955C3.18133 5.21417 3.29066 5.13113 3.4123 5.07611C3.53394 5.02108 3.66502 4.99535 3.79659 5.00069C3.92816 5.00603 4.05713 5.0423 4.1747 5.10703L7.83585 7.10599C8.04548 7.22874 8.2031 7.43579 8.27534 7.68326C8.34758 7.93074 8.32876 8.1992 8.22286 8.43178C8.11696 8.66437 7.9323 8.84279 7.70801 8.92927C7.48371 9.01574 7.2374 9.00347 7.02125 8.89505L4.27538 7.41582L3.68959 9.32483C3.62975 9.51857 3.51693 9.6876 3.36636 9.80913C3.21578 9.93067 3.0347 9.99885 2.84753 10.0045ZM16.5769 18.9998C16.3951 19.0009 16.2171 18.943 16.0656 18.8332C15.9141 18.7235 15.7959 18.5669 15.7262 18.3836C15.6565 18.2002 15.6384 17.9984 15.6741 17.8037C15.7099 17.6091 15.7979 17.4305 15.927 17.2907L17.1169 16.0014L15.9362 14.712C15.7862 14.5208 15.7079 14.2749 15.7168 14.0233C15.7256 13.7718 15.8211 13.5332 15.9841 13.3552C16.1472 13.1772 16.3657 13.0729 16.596 13.0632C16.8264 13.0535 17.0516 13.139 17.2267 13.3028L19.0573 15.3017C19.2278 15.489 19.3234 15.7423 19.3234 16.0064C19.3234 16.2704 19.2278 16.5237 19.0573 16.711L17.2267 18.7099C17.1412 18.8026 17.0398 18.8759 16.9282 18.9256C16.8167 18.9753 16.6973 19.0006 16.5769 18.9998Z" fill="#909A95"/>
<path d="M21.1533 18.9998H20.9702C20.8489 18.976 20.7332 18.9258 20.6301 18.852C20.527 18.7782 20.4386 18.6824 20.3702 18.5704C20.3018 18.4584 20.2548 18.3325 20.2321 18.2001C20.2094 18.0678 20.2114 17.9319 20.238 17.8004L21.0068 13.6226L17.1352 11.9335C17.0234 11.8849 16.9215 11.8128 16.8352 11.7212C16.7489 11.6296 16.6801 11.5204 16.6325 11.3997C16.5849 11.2791 16.5595 11.1494 16.5578 11.018C16.5561 10.8867 16.5781 10.7562 16.6226 10.6341C16.6671 10.5121 16.7331 10.4008 16.817 10.3066C16.9009 10.2124 17.0009 10.1372 17.1114 10.0852C17.2219 10.0332 17.3407 10.0055 17.461 10.0037C17.5812 10.0018 17.7007 10.0259 17.8125 10.0744L22.3889 12.0734C22.5954 12.1529 22.7689 12.3105 22.8781 12.5177C22.9872 12.7249 23.0248 12.968 22.9839 13.2028L22.0686 18.2002C22.0258 18.4294 21.9108 18.6349 21.7435 18.781C21.5763 18.9271 21.3674 19.0045 21.1533 18.9998ZM21.1533 10.0045C20.9614 10.005 20.7742 9.93969 20.6182 9.81773C20.4621 9.69577 20.3452 9.52335 20.2838 9.32483L19.698 7.41583L16.9521 8.89505C16.8441 8.95831 16.7255 8.99723 16.6035 9.0095C16.4814 9.02178 16.3584 9.00716 16.2416 8.96651C16.1248 8.92586 16.0167 8.86001 15.9236 8.77287C15.8306 8.68572 15.7545 8.57906 15.7 8.45922C15.6454 8.33937 15.6134 8.20877 15.606 8.07517C15.5985 7.94157 15.6157 7.8077 15.6565 7.68149C15.6973 7.55528 15.7609 7.4393 15.8435 7.34044C15.9261 7.24158 16.0261 7.16185 16.1375 7.10599L19.7987 5.10703C19.9162 5.0423 20.0452 5.00603 20.1768 5.00069C20.3083 4.99535 20.4394 5.02108 20.5611 5.07611C20.6827 5.13113 20.792 5.21417 20.8816 5.31955C20.9712 5.42493 21.0389 5.55017 21.0801 5.68673L21.9953 8.68516C22.0412 8.83335 22.0546 8.99123 22.0345 9.14611C22.0143 9.30098 21.9611 9.44853 21.8792 9.57686C21.7973 9.7052 21.6889 9.81075 21.5629 9.88502C21.4368 9.95929 21.2965 10.0002 21.1533 10.0045ZM10.2247 12.813C10.5889 12.813 10.9381 12.6551 11.1955 12.3739C11.453 12.0927 11.5977 11.7114 11.5977 11.3138C11.5977 10.9162 11.453 10.5348 11.1955 10.2537C10.9381 9.97253 10.5889 9.81458 10.2247 9.81458C9.86062 9.81458 9.5114 9.97253 9.25393 10.2537C8.99645 10.5348 8.85181 10.9162 8.85181 11.3138C8.85181 11.7114 8.99645 12.0927 9.25393 12.3739C9.5114 12.6551 9.86062 12.813 10.2247 12.813ZM13.7761 12.883C14.1402 12.883 14.4894 12.725 14.7469 12.4439C15.0043 12.1627 15.149 11.7814 15.149 11.3838C15.149 10.9861 15.0043 10.6048 14.7469 10.3237C14.4894 10.0425 14.1402 9.88454 13.7761 9.88454C13.4119 9.88454 13.0627 10.0425 12.8052 10.3237C12.5478 10.6048 12.4031 10.9861 12.4031 11.3838C12.4031 11.7814 12.5478 12.1627 12.8052 12.4439C13.0627 12.725 13.4119 12.883 13.7761 12.883Z" fill="#909A95"/>
</svg>
