<svg width="13" height="12" viewBox="0 0 13 12" fill="none" xmlns="http://www.w3.org/2000/svg">
<path d="M8.58726 8.40463C11.623 5.72455 13.975 2.20353 12.5958 0.659176C12.1584 0.169616 11.5475 -0.0573981 10.8917 0.0123511C10.3411 0.0722302 9.77521 0.342673 9.20473 0.796701C8.30795 0.334775 7.307 0.109278 6.29755 0.141765C5.28811 0.174253 4.30391 0.463639 3.43906 0.98226C2.76674 1.37804 2.18015 1.90262 1.71334 2.52557C1.24653 3.14852 0.90878 3.85744 0.719693 4.61119C0.424987 5.77225 0.495672 6.99525 0.922206 8.1151C0.217381 8.90669 -0.437147 10.5346 0.377538 11.4466C0.719693 11.8289 1.20943 12 1.79844 12C3.58995 12 6.30403 10.4214 8.58726 8.40463ZM11.0353 1.31982C11.2722 1.29745 11.4536 1.36193 11.6051 1.53236C11.758 1.7041 11.7169 2.15484 11.4383 2.80166C11.139 2.34875 10.779 1.93854 10.3682 1.58237C10.6534 1.40997 10.8817 1.33693 11.0353 1.31982ZM1.6171 9.41533C1.91138 9.8397 2.26025 10.2239 2.65482 10.5583C1.97647 10.7577 1.52048 10.7445 1.3676 10.5721C1.22399 10.4122 1.36893 9.8687 1.6171 9.41533ZM12.4112 5.55346C11.6071 6.73591 10.488 7.96902 9.24907 9.06264C7.96913 10.1938 6.55816 11.1735 5.24513 11.8276C5.65255 11.9168 6.0682 11.9635 6.48536 11.9671C7.56168 11.966 8.6175 11.6744 9.54026 11.1235C10.4989 10.5593 11.2772 9.73671 11.7853 8.75099C12.2933 7.76527 12.5103 6.65668 12.4112 5.55346Z" fill="#04C290"/>
</svg>
