<svg width="14" height="16" viewBox="0 0 14 16" fill="none" xmlns="http://www.w3.org/2000/svg">
<path fill-rule="evenodd" clip-rule="evenodd" d="M13.6887 5.83975L6.90943 14.3318C6.25832 15.3315 5.07383 16.0001 3.7206 16.0001C1.66577 16.0001 0 14.4585 0 12.557C0 11.4283 0.586882 10.4264 1.49365 9.79846L7.36387 4.52506C7.48392 4.41722 7.66251 4.40651 7.79458 4.49923C7.93198 4.59569 7.98048 4.77677 7.90969 4.92899L7.48911 5.83333L13.4442 1.06481C13.5663 0.96704 13.7397 0.96664 13.8623 1.06385C13.9972 1.17089 14.0292 1.36274 13.9362 1.50773L11.1618 5.83333L13.3745 5.3373C13.5627 5.29513 13.7441 5.43086 13.7567 5.62326C13.7618 5.70137 13.7376 5.77858 13.6887 5.83975ZM3.65678 15.2021C5.23538 15.2021 6.51509 14.0178 6.51509 12.557C6.51509 11.0961 5.23538 9.91184 3.65678 9.91184C2.07817 9.91184 0.798462 11.0961 0.798462 12.557C0.798462 14.0178 2.07817 15.2021 3.65678 15.2021Z" fill="#04C290"/>
</svg>
