<svg width="151" height="31" viewBox="0 0 151 31" fill="none" xmlns="http://www.w3.org/2000/svg">
<path d="M11.4712 0C10.253 0 6.44598 2.38478 5.98914 2.81838L6.71247 4.6973L11.1899 7.06608C11.7863 6.22298 12.7276 3.83011 12.994 2.45705C13.2078 1.35546 12.6895 0 11.4712 0Z" fill="url(#paint0_linear_129:2022)"/>
<path d="M43.3557 14.6696C43.3557 12.5047 41.8896 11.7831 40.8133 12.0109C36.3736 13.5682 28.2148 12.6186 24.6478 11.5932C21.0808 10.5677 13.1499 7.03545 11.7079 6.50372C7.60966 5.06045 6.18147 3.35131 5.99183 2.81958C2.69035 11.973 -4.45744 23.5504 3.9289 27.4691C16.5273 33.3561 33.4895 27.6211 36.9806 25.1143C40.4717 22.6076 43.3557 16.8345 43.3557 14.6696Z" fill="#00B171"/>
<mask id="mask0_129:2022" style="mask-type:alpha" maskUnits="userSpaceOnUse" x="0" y="2" width="44" height="29">
<path d="M43.3329 14.6868C43.3329 12.521 41.8678 11.799 40.7923 12.027C36.3558 13.5849 28.2028 12.635 24.6383 11.6091C21.0738 10.5831 13.1486 7.04947 11.7076 6.51751C7.61225 5.07365 6.18508 3.3638 5.99557 2.83185C2.69644 11.989 -4.44629 23.5712 3.93411 27.4916C16.5236 33.381 33.4737 27.6436 36.9624 25.1358C40.451 22.6281 43.3329 16.8526 43.3329 14.6868Z" fill="#00B171"/>
</mask>
<g mask="url(#mask0_129:2022)">
<path d="M4.40308 33.509L17.8646 1.04596L30.4637 5.93045L20.2269 34.7865L4.40308 33.509Z" fill="url(#paint1_linear_129:2022)"/>
<ellipse rx="12.0044" ry="21.0262" transform="matrix(0.915472 0.402381 -0.401021 0.916069 11.6145 15.5514)" fill="url(#paint2_linear_129:2022)"/>
<path d="M16.8118 22.3659C29.4366 23.8849 42.9877 13.3996 44.7569 12.3762L41.9554 35.8749L19.3905 41.5173L-8.69444 15.242C-4.4006 17.1103 6.71203 21.1507 16.8118 22.3659Z" fill="url(#paint3_linear_129:2022)"/>
</g>
<path fill-rule="evenodd" clip-rule="evenodd" d="M11.5004 13.0063C9.44183 12.0636 7.50284 12.8606 6.23264 13.7449C4.95102 14.6371 3.98026 15.8511 3.56592 16.563L5.15116 17.4894C5.44469 16.9851 6.23948 15.9792 7.27972 15.2551C8.32238 14.5292 9.54602 14.1282 10.7474 14.6833L10.7631 14.6905L10.7792 14.6972C11.1977 14.8717 11.5302 15.1938 11.8226 15.6128C12.0439 15.93 12.2017 16.2357 12.3638 16.5496C12.4292 16.6764 12.4954 16.8045 12.5667 16.9352C12.6081 17.0112 12.6569 17.1061 12.7121 17.2135C12.8734 17.5274 13.0895 17.9481 13.3383 18.316C13.6958 18.8446 14.2003 19.4038 14.9562 19.7539C16.1633 20.3131 17.4569 20.1101 18.4398 19.6226C19.4346 19.1292 20.2535 18.3116 20.8229 17.5131L19.3297 16.4441C18.8817 17.0724 18.2775 17.6513 17.6257 17.9746C16.9977 18.2861 16.3006 18.3509 15.7263 18.0848C15.3777 17.9233 15.1049 17.6503 14.8576 17.2845C14.6744 17.0136 14.5431 16.7577 14.3994 16.4774C14.3305 16.3431 14.2588 16.2032 14.1771 16.0535C14.1389 15.9834 14.0938 15.8959 14.0422 15.7959C13.8696 15.4611 13.6248 14.9866 13.3267 14.5592C12.9236 13.9815 12.3478 13.3643 11.5004 13.0063Z" fill="url(#paint4_linear_129:2022)"/>
<path d="M58.7067 22.1493C59.2446 22.1493 59.7239 22.0622 60.1446 21.888C60.5722 21.7137 60.9308 21.4692 61.2204 21.1542C61.5101 20.8393 61.7307 20.4573 61.8825 20.0083C62.0411 19.5594 62.1204 19.0568 62.1204 18.5006V9.79598H64.9031V18.5006C64.9031 19.365 64.7582 20.1658 64.4686 20.9029C64.1858 21.6333 63.7755 22.2666 63.2376 22.8027C62.7066 23.332 62.0583 23.7475 61.2928 24.0491C60.5273 24.3439 59.6653 24.4913 58.7067 24.4913C57.7412 24.4913 56.8757 24.3439 56.1102 24.0491C55.3447 23.7475 54.693 23.332 54.1551 22.8027C53.6241 22.2666 53.2138 21.6333 52.9241 20.9029C52.6414 20.1658 52.5 19.365 52.5 18.5006V9.79598H55.2827V18.4906C55.2827 19.0467 55.3585 19.5493 55.5103 19.9983C55.6689 20.4473 55.893 20.8326 56.1826 21.1542C56.4792 21.4692 56.8378 21.7137 57.2585 21.888C57.686 22.0622 58.1688 22.1493 58.7067 22.1493Z" fill="#09321E"/>
<path d="M69.7047 15.8068C70.0357 15.1903 70.4288 14.7078 70.884 14.3594C71.3391 14.0042 71.877 13.8266 72.4977 13.8266C72.9873 13.8266 73.3804 13.9305 73.677 14.1382L73.5115 15.9978C73.477 16.1184 73.4253 16.2055 73.3563 16.2591C73.2942 16.306 73.208 16.3295 73.0977 16.3295C72.9942 16.3295 72.8391 16.3127 72.6322 16.2792C72.4322 16.2457 72.2356 16.229 72.0425 16.229C71.7598 16.229 71.5081 16.2692 71.2874 16.3496C71.0667 16.43 70.8667 16.5473 70.6874 16.7014C70.515 16.8488 70.3598 17.0297 70.2219 17.2442C70.0909 17.4586 69.9668 17.7032 69.8495 17.9779V24.3305H67.2944V14.0176H68.7944C69.0564 14.0176 69.2392 14.0645 69.3426 14.1583C69.4461 14.2455 69.515 14.4063 69.5495 14.6408L69.7047 15.8068Z" fill="#09321E"/>
<path d="M77.5675 21.6568C77.8571 21.9985 78.1709 22.2398 78.5088 22.3805C78.8537 22.5212 79.2157 22.5916 79.595 22.5916C79.9881 22.5916 80.3398 22.5246 80.6501 22.3906C80.9674 22.2498 81.2363 22.0354 81.457 21.7473C81.6777 21.4524 81.8467 21.0805 81.9639 20.6315C82.0811 20.1759 82.1398 19.6331 82.1398 19.0032C82.1398 17.8707 81.9467 17.0532 81.5605 16.5506C81.1743 16.0413 80.6191 15.7867 79.895 15.7867C79.4054 15.7867 78.9778 15.8973 78.6123 16.1184C78.2468 16.3328 77.8985 16.6377 77.5675 17.0331V21.6568ZM77.5675 15.2841C77.9951 14.8486 78.4675 14.5034 78.9847 14.2488C79.5088 13.9875 80.1053 13.8568 80.7743 13.8568C81.3881 13.8568 81.9398 13.9741 82.4294 14.2086C82.9259 14.4431 83.3466 14.7815 83.6914 15.2238C84.0431 15.6594 84.3121 16.1888 84.4983 16.812C84.6845 17.4351 84.7776 18.1354 84.7776 18.9127C84.7776 19.7503 84.6707 20.5109 84.4569 21.1944C84.2431 21.8779 83.9362 22.4643 83.5363 22.9534C83.1432 23.4359 82.6673 23.8112 82.1087 24.0792C81.5501 24.3473 80.9294 24.4813 80.2467 24.4813C79.9157 24.4813 79.6157 24.4478 79.3467 24.3808C79.0778 24.3204 78.8295 24.2333 78.6019 24.1194C78.3744 24.0055 78.164 23.8681 77.9709 23.7073C77.7847 23.5398 77.6054 23.3555 77.433 23.1545L77.3192 23.848C77.2778 24.0222 77.2054 24.1462 77.102 24.2199C77.0054 24.2936 76.871 24.3305 76.6985 24.3305H75.0124V9.39392H77.5675V15.2841Z" fill="#09321E"/>
<path d="M89.3992 14.0176V24.3305H86.8337V14.0176H89.3992ZM89.7509 11.0122C89.7509 11.2266 89.7061 11.4277 89.6164 11.6153C89.5268 11.8029 89.4061 11.9671 89.2543 12.1078C89.1095 12.2486 88.9371 12.3625 88.7371 12.4496C88.5371 12.53 88.3233 12.5702 88.0958 12.5702C87.8751 12.5702 87.6647 12.53 87.4648 12.4496C87.2717 12.3625 87.1027 12.2486 86.9579 12.1078C86.813 11.9671 86.6958 11.8029 86.6062 11.6153C86.5234 11.4277 86.482 11.2266 86.482 11.0122C86.482 10.7911 86.5234 10.5834 86.6062 10.389C86.6958 10.1947 86.813 10.0272 86.9579 9.88645C87.1027 9.74572 87.2717 9.63516 87.4648 9.55475C87.6647 9.46763 87.8751 9.42408 88.0958 9.42408C88.3233 9.42408 88.5371 9.46763 88.7371 9.55475C88.9371 9.63516 89.1095 9.74572 89.2543 9.88645C89.4061 10.0272 89.5268 10.1947 89.6164 10.389C89.7061 10.5834 89.7509 10.7911 89.7509 11.0122Z" fill="#09321E"/>
<path d="M95.5419 24.4913C94.6178 24.4913 93.9074 24.24 93.4109 23.7375C92.9213 23.2282 92.6764 22.5279 92.6764 21.6367V15.8772H91.5903C91.4523 15.8772 91.3351 15.8336 91.2386 15.7465C91.142 15.6594 91.0937 15.5287 91.0937 15.3545V14.3694L92.8006 14.098L93.3385 11.2836C93.373 11.1496 93.4385 11.0457 93.535 10.972C93.6316 10.8983 93.7557 10.8614 93.9074 10.8614H95.2315V14.1081H98.0659V15.8772H95.2315V21.4658C95.2315 21.7875 95.3108 22.0387 95.4695 22.2197C95.635 22.4006 95.8591 22.4911 96.1418 22.4911C96.3005 22.4911 96.4315 22.4743 96.5349 22.4408C96.6453 22.4006 96.7384 22.3604 96.8142 22.3202C96.897 22.28 96.9694 22.2431 97.0315 22.2096C97.0935 22.1694 97.1556 22.1493 97.2177 22.1493C97.2935 22.1493 97.3556 22.1694 97.4039 22.2096C97.4522 22.2431 97.5039 22.2967 97.559 22.3704L98.3245 23.5766C97.9521 23.8782 97.5246 24.106 97.0418 24.2601C96.5591 24.4143 96.0591 24.4913 95.5419 24.4913Z" fill="#09321E"/>
<path d="M117.185 9.79598L111.144 24.3305H108.63L102.589 9.79598H104.823C105.065 9.79598 105.261 9.85294 105.413 9.96686C105.565 10.0808 105.679 10.2282 105.754 10.4091L109.282 19.2746C109.399 19.5627 109.51 19.881 109.613 20.2295C109.723 20.5712 109.827 20.9297 109.923 21.305C110.006 20.9297 110.096 20.5712 110.192 20.2295C110.289 19.881 110.396 19.5627 110.513 19.2746L114.02 10.4091C114.075 10.255 114.182 10.1143 114.34 9.98696C114.506 9.85964 114.706 9.79598 114.94 9.79598H117.185Z" fill="#09321E"/>
<path d="M120.978 14.0176V24.3305H118.413V14.0176H120.978ZM121.33 11.0122C121.33 11.2266 121.285 11.4277 121.195 11.6153C121.106 11.8029 120.985 11.9671 120.833 12.1078C120.689 12.2486 120.516 12.3625 120.316 12.4496C120.116 12.53 119.902 12.5702 119.675 12.5702C119.454 12.5702 119.244 12.53 119.044 12.4496C118.851 12.3625 118.682 12.2486 118.537 12.1078C118.392 11.9671 118.275 11.8029 118.185 11.6153C118.102 11.4277 118.061 11.2266 118.061 11.0122C118.061 10.7911 118.102 10.5834 118.185 10.389C118.275 10.1947 118.392 10.0272 118.537 9.88645C118.682 9.74572 118.851 9.63516 119.044 9.55475C119.244 9.46763 119.454 9.42408 119.675 9.42408C119.902 9.42408 120.116 9.46763 120.316 9.55475C120.516 9.63516 120.689 9.74572 120.833 9.88645C120.985 10.0272 121.106 10.1947 121.195 10.389C121.285 10.5834 121.33 10.7911 121.33 11.0122Z" fill="#09321E"/>
<path d="M130.059 16.0279C129.99 16.1351 129.917 16.2122 129.841 16.2591C129.766 16.2993 129.669 16.3194 129.552 16.3194C129.428 16.3194 129.293 16.2859 129.148 16.2189C129.01 16.1519 128.848 16.0782 128.662 15.9978C128.476 15.9107 128.262 15.8336 128.021 15.7666C127.786 15.6996 127.507 15.6661 127.183 15.6661C126.68 15.6661 126.283 15.7699 125.993 15.9777C125.711 16.1854 125.569 16.4568 125.569 16.7918C125.569 17.013 125.642 17.2006 125.786 17.3547C125.938 17.5022 126.135 17.6328 126.376 17.7467C126.624 17.8607 126.904 17.9645 127.214 18.0583C127.524 18.1455 127.838 18.2426 128.155 18.3498C128.479 18.4571 128.797 18.581 129.107 18.7217C129.417 18.8558 129.693 19.03 129.935 19.2444C130.183 19.4522 130.379 19.7034 130.524 19.9983C130.676 20.2931 130.752 20.6483 130.752 21.0637C130.752 21.5596 130.659 22.0186 130.473 22.4408C130.293 22.8563 130.024 23.2181 129.666 23.5264C129.307 23.8279 128.862 24.0658 128.331 24.24C127.807 24.4076 127.2 24.4913 126.511 24.4913C126.145 24.4913 125.786 24.4578 125.435 24.3908C125.09 24.3305 124.755 24.2434 124.431 24.1295C124.114 24.0155 123.818 23.8815 123.542 23.7274C123.273 23.5733 123.035 23.4058 122.828 23.2248L123.418 22.28C123.493 22.1661 123.583 22.079 123.687 22.0186C123.79 21.9583 123.921 21.9282 124.08 21.9282C124.238 21.9282 124.386 21.9717 124.524 22.0589C124.669 22.146 124.835 22.2398 125.021 22.3403C125.207 22.4408 125.424 22.5346 125.673 22.6217C125.928 22.7089 126.249 22.7524 126.635 22.7524C126.938 22.7524 127.197 22.7189 127.411 22.6519C127.631 22.5782 127.811 22.4844 127.948 22.3704C128.093 22.2565 128.197 22.1259 128.259 21.9784C128.328 21.8243 128.362 21.6668 128.362 21.506C128.362 21.2648 128.286 21.0671 128.135 20.913C127.99 20.7589 127.793 20.6248 127.545 20.5109C127.304 20.397 127.024 20.2965 126.707 20.2094C126.397 20.1156 126.076 20.015 125.745 19.9078C125.421 19.8006 125.1 19.6766 124.783 19.5359C124.473 19.3885 124.193 19.2042 123.945 18.9831C123.704 18.7619 123.507 18.4906 123.355 18.1689C123.211 17.8473 123.138 17.4586 123.138 17.0029C123.138 16.5808 123.224 16.1787 123.397 15.7967C123.569 15.4148 123.821 15.0831 124.152 14.8016C124.49 14.5135 124.907 14.2857 125.404 14.1181C125.907 13.9439 126.486 13.8568 127.142 13.8568C127.873 13.8568 128.538 13.9741 129.138 14.2086C129.738 14.4431 130.238 14.7514 130.638 15.1333L130.059 16.0279Z" fill="#09321E"/>
<path d="M137.371 13.8568C138.158 13.8568 138.871 13.9808 139.513 14.2287C140.161 14.4766 140.713 14.8284 141.168 15.2841C141.63 15.7398 141.985 16.296 142.233 16.9527C142.482 17.6094 142.606 18.3431 142.606 19.154C142.606 19.9715 142.482 20.7086 142.233 21.3653C141.985 22.022 141.63 22.5815 141.168 23.0439C140.713 23.5063 140.161 23.8614 139.513 24.1094C138.871 24.3573 138.158 24.4813 137.371 24.4813C136.578 24.4813 135.858 24.3573 135.209 24.1094C134.561 23.8614 134.006 23.5063 133.544 23.0439C133.089 22.5815 132.734 22.022 132.478 21.3653C132.23 20.7086 132.106 19.9715 132.106 19.154C132.106 18.3431 132.23 17.6094 132.478 16.9527C132.734 16.296 133.089 15.7398 133.544 15.2841C134.006 14.8284 134.561 14.4766 135.209 14.2287C135.858 13.9808 136.578 13.8568 137.371 13.8568ZM137.371 22.5715C138.254 22.5715 138.906 22.2833 139.326 21.707C139.754 21.1308 139.968 20.2864 139.968 19.1741C139.968 18.0617 139.754 17.214 139.326 16.631C138.906 16.048 138.254 15.7565 137.371 15.7565C136.475 15.7565 135.809 16.0514 135.375 16.6411C134.947 17.2241 134.733 18.0684 134.733 19.1741C134.733 20.2797 134.947 21.1241 135.375 21.707C135.809 22.2833 136.475 22.5715 137.371 22.5715Z" fill="#09321E"/>
<path d="M146.965 15.8068C147.296 15.1903 147.689 14.7078 148.144 14.3594C148.6 14.0042 149.138 13.8266 149.758 13.8266C150.248 13.8266 150.641 13.9305 150.937 14.1382L150.772 15.9978C150.738 16.1184 150.686 16.2055 150.617 16.2591C150.555 16.306 150.469 16.3295 150.358 16.3295C150.255 16.3295 150.1 16.3127 149.893 16.2792C149.693 16.2457 149.496 16.229 149.303 16.229C149.02 16.229 148.769 16.2692 148.548 16.3496C148.327 16.43 148.127 16.5473 147.948 16.7014C147.776 16.8488 147.62 17.0297 147.482 17.2442C147.351 17.4586 147.227 17.7032 147.11 17.9779V24.3305H144.555V14.0176H146.055C146.317 14.0176 146.5 14.0645 146.603 14.1583C146.707 14.2455 146.776 14.4063 146.81 14.6408L146.965 15.8068Z" fill="#09321E"/>
<defs>
<linearGradient id="paint0_linear_129:2022" x1="9.51505" y1="0" x2="9.51505" y2="7.06608" gradientUnits="userSpaceOnUse">
<stop stop-color="#03A268"/>
<stop offset="1" stop-color="#005738" stop-opacity="0.88"/>
</linearGradient>
<linearGradient id="paint1_linear_129:2022" x1="6.7654" y1="8.74842" x2="24.0968" y2="32.1605" gradientUnits="userSpaceOnUse">
<stop stop-color="#11DE94"/>
<stop offset="1" stop-color="#11DE94" stop-opacity="0"/>
</linearGradient>
<linearGradient id="paint2_linear_129:2022" x1="14.7327" y1="15.3653" x2="-2.4264" y2="25.1765" gradientUnits="userSpaceOnUse">
<stop stop-color="#72FFCC" stop-opacity="0.59"/>
<stop offset="1" stop-color="#47EAAF" stop-opacity="0"/>
</linearGradient>
<linearGradient id="paint3_linear_129:2022" x1="31.0106" y1="39.2065" x2="19.6122" y2="11.9578" gradientUnits="userSpaceOnUse">
<stop stop-color="#004F32"/>
<stop offset="1" stop-color="#00B171" stop-opacity="0"/>
</linearGradient>
<linearGradient id="paint4_linear_129:2022" x1="12.1944" y1="12.5816" x2="9.66512" y2="19.8947" gradientUnits="userSpaceOnUse">
<stop stop-color="white"/>
<stop offset="1" stop-color="white" stop-opacity="0"/>
</linearGradient>
</defs>
</svg>
