<svg width="121" height="24" viewBox="0 0 121 24" fill="none" xmlns="http://www.w3.org/2000/svg">
<path d="M9.15858 0C8.18594 0 5.14647 1.90398 4.78174 2.25016L5.35924 3.75026L8.93393 5.64147C9.41011 4.96834 10.1616 3.05791 10.3744 1.96168C10.5451 1.08218 10.1312 0 9.15858 0Z" fill="url(#paint0_linear_129_3833)"/>
<path d="M34.6146 11.712C34.6146 9.98357 33.4441 9.40743 32.5848 9.58937C29.0402 10.8326 22.5263 10.0745 19.6785 9.25581C16.8306 8.43708 10.4987 5.617 9.34745 5.19247C6.07545 4.04018 4.9352 2.67563 4.7838 2.2511C2.14794 9.55904 -3.55877 18.8023 3.13678 21.931C13.1952 26.6311 26.7376 22.0523 29.5249 20.0509C32.3121 18.0496 34.6146 13.4404 34.6146 11.712Z" fill="#00B171"/>
<mask id="mask0_129_3833" style="mask-type:alpha" maskUnits="userSpaceOnUse" x="0" y="2" width="35" height="22">
<path d="M34.5964 11.7257C34.5964 9.9966 33.4267 9.42021 32.568 9.60223C29.0259 10.846 22.5167 10.0876 19.6709 9.26853C16.825 8.44946 10.4976 5.62822 9.34717 5.20351C6.07749 4.05075 4.93805 2.68563 4.78675 2.26093C2.15277 9.57189 -3.54989 18.819 3.14091 21.949C13.1922 26.651 26.725 22.0703 29.5103 20.0681C32.2955 18.066 34.5964 13.4549 34.5964 11.7257Z" fill="#00B171"/>
</mask>
<g mask="url(#mask0_129_3833)">
<path d="M3.51514 26.7532L14.2626 0.835144L24.3216 4.73485L16.1487 27.7731L3.51514 26.7532Z" fill="url(#paint1_linear_129_3833)"/>
<ellipse rx="9.58416" ry="16.787" transform="matrix(0.915472 0.402381 -0.401021 0.916069 9.27255 12.416)" fill="url(#paint2_linear_129_3833)"/>
<path d="M13.4222 17.8567C23.5016 19.0694 34.3206 10.6981 35.7332 9.88102L33.4965 28.642L15.481 33.1469L-6.9417 12.1691C-3.51356 13.6607 5.35862 16.8865 13.4222 17.8567Z" fill="url(#paint3_linear_129_3833)"/>
</g>
<path fill-rule="evenodd" clip-rule="evenodd" d="M9.18192 10.384C7.53842 9.63144 5.99035 10.2678 4.97624 10.9737C3.95301 11.6861 3.17798 12.6553 2.84717 13.2237L4.11281 13.9633C4.34715 13.5607 4.9817 12.7576 5.81222 12.1794C6.64467 11.5999 7.6216 11.2798 8.58076 11.7229L8.59333 11.7287L8.60612 11.7341C8.94026 11.8733 9.20578 12.1305 9.43919 12.4651C9.61588 12.7183 9.7419 12.9624 9.87127 13.213C9.92353 13.3142 9.97634 13.4165 10.0333 13.5208C10.0663 13.5815 10.1053 13.6573 10.1493 13.743C10.2781 13.9937 10.4507 14.3295 10.6493 14.6233C10.9347 15.0453 11.3376 15.4917 11.941 15.7713C12.9048 16.2177 13.9376 16.0557 14.7223 15.6664C15.5165 15.2725 16.1703 14.6198 16.6249 13.9822L15.4327 13.1288C15.0751 13.6304 14.5927 14.0926 14.0723 14.3507C13.5709 14.5993 13.0144 14.6511 12.5558 14.4387C12.2775 14.3097 12.0598 14.0918 11.8623 13.7997C11.716 13.5834 11.6112 13.3791 11.4964 13.1553C11.4415 13.0481 11.3842 12.9365 11.319 12.8169C11.2885 12.7609 11.2525 12.691 11.2113 12.6112C11.0735 12.344 10.8781 11.9651 10.64 11.6239C10.3183 11.1627 9.8585 10.6699 9.18192 10.384Z" fill="url(#paint4_linear_129_3833)"/>
<path d="M46.8709 17.6837C47.3003 17.6837 47.683 17.6142 48.0189 17.4751C48.3602 17.336 48.6465 17.1407 48.8778 16.8893C49.109 16.6378 49.2852 16.3329 49.4064 15.9744C49.533 15.616 49.5963 15.2147 49.5963 14.7707V7.821H51.818V14.7707C51.818 15.4608 51.7023 16.1001 51.4711 16.6886C51.2454 17.2718 50.9177 17.7774 50.4883 18.2054C50.0643 18.628 49.5468 18.9597 48.9356 19.2005C48.3244 19.4359 47.6362 19.5536 46.8709 19.5536C46.1 19.5536 45.4091 19.4359 44.7979 19.2005C44.1867 18.9597 43.6664 18.628 43.237 18.2054C42.813 17.7774 42.4854 17.2718 42.2541 16.6886C42.0284 16.1001 41.9155 15.4608 41.9155 14.7707V7.821H44.1372V14.7626C44.1372 15.2067 44.1977 15.6079 44.3189 15.9664C44.4455 16.3248 44.6245 16.6325 44.8557 16.8893C45.0925 17.1407 45.3788 17.336 45.7146 17.4751C46.056 17.6142 46.4414 17.6837 46.8709 17.6837Z" fill="#F1F5F3"/>
<path d="M55.6515 12.62C55.9158 12.1278 56.2297 11.7426 56.593 11.4644C56.9564 11.1808 57.3859 11.039 57.8814 11.039C58.2724 11.039 58.5862 11.122 58.823 11.2878L58.6908 12.7724C58.6633 12.8687 58.622 12.9383 58.5669 12.9811C58.5174 13.0185 58.4485 13.0373 58.3605 13.0373C58.2779 13.0373 58.154 13.0239 57.9888 12.9971C57.8291 12.9704 57.6722 12.957 57.518 12.957C57.2923 12.957 57.0913 12.9891 56.9151 13.0533C56.739 13.1175 56.5793 13.2111 56.4361 13.3342C56.2985 13.4519 56.1746 13.5963 56.0645 13.7675C55.9599 13.9387 55.8608 14.134 55.7672 14.3534V19.4252H53.7272V11.1915H54.9247C55.134 11.1915 55.2799 11.229 55.3625 11.3039C55.4451 11.3734 55.5001 11.5018 55.5276 11.6891L55.6515 12.62Z" fill="#F1F5F3"/>
<path d="M61.9291 17.2905C62.1603 17.5634 62.4109 17.756 62.6806 17.8683C62.9559 17.9807 63.245 18.0368 63.5478 18.0368C63.8617 18.0368 64.1425 17.9833 64.3902 17.8763C64.6435 17.764 64.8582 17.5928 65.0344 17.3627C65.2106 17.1273 65.3455 16.8304 65.4391 16.472C65.5327 16.1082 65.5795 15.6748 65.5795 15.1719C65.5795 14.2678 65.4254 13.6151 65.117 13.2138C64.8087 12.8072 64.3655 12.6039 63.7873 12.6039C63.3964 12.6039 63.055 12.6922 62.7632 12.8687C62.4714 13.0399 62.1934 13.2834 61.9291 13.599V17.2905ZM61.9291 12.2027C62.2705 11.8549 62.6476 11.5794 63.0606 11.3761C63.479 11.1674 63.9553 11.0631 64.4893 11.0631C64.9794 11.0631 65.4199 11.1567 65.8108 11.344C66.2072 11.5312 66.5431 11.8014 66.8184 12.1545C67.0992 12.5023 67.3139 12.9249 67.4626 13.4225C67.6112 13.92 67.6855 14.4791 67.6855 15.0997C67.6855 15.7684 67.6002 16.3757 67.4295 16.9214C67.2588 17.4671 67.0138 17.9352 66.6945 18.3257C66.3806 18.7109 66.0007 19.0105 65.5547 19.2245C65.1088 19.4385 64.6132 19.5455 64.0681 19.5455C63.8039 19.5455 63.5643 19.5188 63.3496 19.4653C63.1349 19.4171 62.9367 19.3476 62.755 19.2566C62.5733 19.1657 62.4053 19.056 62.2512 18.9276C62.1025 18.7939 61.9594 18.6467 61.8217 18.4862L61.7309 19.04C61.6978 19.1791 61.64 19.278 61.5574 19.3369C61.4803 19.3957 61.373 19.4252 61.2353 19.4252H59.8891V7.5H61.9291V12.2027Z" fill="#F1F5F3"/>
<path d="M71.3754 11.1915V19.4252H69.3271V11.1915H71.3754ZM71.6562 8.79203C71.6562 8.96323 71.6204 9.12373 71.5488 9.27353C71.4772 9.42333 71.3809 9.5544 71.2597 9.66675C71.1441 9.7791 71.0065 9.87005 70.8468 9.9396C70.6871 10.0038 70.5164 10.0359 70.3347 10.0359C70.1585 10.0359 69.9906 10.0038 69.8309 9.9396C69.6768 9.87005 69.5419 9.7791 69.4262 9.66675C69.3106 9.5544 69.217 9.42333 69.1454 9.27353C69.0794 9.12373 69.0463 8.96323 69.0463 8.79203C69.0463 8.61548 69.0794 8.44963 69.1454 8.29448C69.217 8.13933 69.3106 8.00558 69.4262 7.89323C69.5419 7.78088 69.6768 7.6926 69.8309 7.6284C69.9906 7.55885 70.1585 7.52408 70.3347 7.52408C70.5164 7.52408 70.6871 7.55885 70.8468 7.6284C71.0065 7.6926 71.1441 7.78088 71.2597 7.89323C71.3809 8.00558 71.4772 8.13933 71.5488 8.29448C71.6204 8.44963 71.6562 8.61548 71.6562 8.79203Z" fill="#F1F5F3"/>
<path d="M76.2796 19.5536C75.5418 19.5536 74.9747 19.3529 74.5783 18.9517C74.1873 18.5451 73.9919 17.986 73.9919 17.2745V12.6761H73.1247C73.0146 12.6761 72.921 12.6414 72.8439 12.5718C72.7668 12.5023 72.7283 12.3979 72.7283 12.2588V11.4724L74.091 11.2557L74.5204 9.0087C74.548 8.9017 74.6003 8.81878 74.6774 8.75993C74.7545 8.70108 74.8536 8.67165 74.9747 8.67165H76.0318V11.2637H78.2948V12.6761H76.0318V17.138C76.0318 17.3948 76.0951 17.5955 76.2218 17.7399C76.3539 17.8844 76.5329 17.9566 76.7586 17.9566C76.8853 17.9566 76.9899 17.9432 77.0725 17.9165C77.1605 17.8844 77.2349 17.8523 77.2954 17.8202C77.3615 17.7881 77.4193 17.7586 77.4689 17.7319C77.5184 17.6998 77.568 17.6837 77.6175 17.6837C77.6781 17.6837 77.7277 17.6998 77.7662 17.7319C77.8047 17.7586 77.846 17.8014 77.8901 17.8603L78.5012 18.8233C78.2039 19.064 77.8626 19.2459 77.4771 19.369C77.0917 19.492 76.6925 19.5536 76.2796 19.5536Z" fill="#F1F5F3"/>
<path d="M93.5593 7.821L88.7361 19.4252H86.7292L81.906 7.821H83.6899C83.8826 7.821 84.0395 7.86648 84.1607 7.95743C84.2818 8.04838 84.3727 8.16608 84.4332 8.31053L87.2495 15.3886C87.3431 15.6186 87.4312 15.8728 87.5138 16.151C87.6019 16.4238 87.6845 16.71 87.7616 17.0096C87.8276 16.71 87.8992 16.4238 87.9763 16.151C88.0534 15.8728 88.1387 15.6186 88.2323 15.3886L91.0321 8.31053C91.0761 8.18748 91.1615 8.07513 91.2881 7.97348C91.4203 7.87183 91.5799 7.821 91.7671 7.821H93.5593Z" fill="#F1F5F3"/>
<path d="M96.5876 11.1915V19.4252H94.5394V11.1915H96.5876ZM96.8684 8.79203C96.8684 8.96323 96.8326 9.12373 96.7611 9.27353C96.6895 9.42333 96.5931 9.5544 96.472 9.66675C96.3564 9.7791 96.2187 9.87005 96.0591 9.9396C95.8994 10.0038 95.7287 10.0359 95.547 10.0359C95.3708 10.0359 95.2029 10.0038 95.0432 9.9396C94.889 9.87005 94.7542 9.7791 94.6385 9.66675C94.5229 9.5544 94.4293 9.42333 94.3577 9.27353C94.2917 9.12373 94.2586 8.96323 94.2586 8.79203C94.2586 8.61548 94.2917 8.44963 94.3577 8.29448C94.4293 8.13933 94.5229 8.00558 94.6385 7.89323C94.7542 7.78088 94.889 7.6926 95.0432 7.6284C95.2029 7.55885 95.3708 7.52408 95.547 7.52408C95.7287 7.52408 95.8994 7.55885 96.0591 7.6284C96.2187 7.6926 96.3564 7.78088 96.472 7.89323C96.5931 8.00558 96.6895 8.13933 96.7611 8.29448C96.8326 8.44963 96.8684 8.61548 96.8684 8.79203Z" fill="#F1F5F3"/>
<path d="M103.837 12.7965C103.782 12.8821 103.725 12.9436 103.664 12.9811C103.603 13.0132 103.526 13.0292 103.433 13.0292C103.334 13.0292 103.226 13.0025 103.111 12.949C103.001 12.8955 102.871 12.8366 102.722 12.7724C102.574 12.7029 102.403 12.6414 102.21 12.5879C102.023 12.5344 101.8 12.5076 101.541 12.5076C101.139 12.5076 100.823 12.5905 100.592 12.7564C100.366 12.9222 100.253 13.1389 100.253 13.4064C100.253 13.583 100.311 13.7328 100.426 13.8558C100.548 13.9735 100.705 14.0778 100.897 14.1688C101.095 14.2597 101.318 14.3427 101.566 14.4176C101.814 14.4871 102.065 14.5647 102.318 14.6503C102.577 14.7359 102.83 14.8349 103.078 14.9472C103.325 15.0542 103.546 15.1933 103.738 15.3645C103.937 15.5304 104.093 15.731 104.209 15.9664C104.33 16.2018 104.391 16.4853 104.391 16.817C104.391 17.2129 104.316 17.5794 104.168 17.9165C104.025 18.2482 103.81 18.5371 103.524 18.7832C103.237 19.0239 102.882 19.2138 102.458 19.3529C102.04 19.4867 101.555 19.5536 101.005 19.5536C100.713 19.5536 100.426 19.5268 100.146 19.4733C99.8704 19.4252 99.6033 19.3556 99.3446 19.2647C99.0913 19.1737 98.8545 19.0667 98.6343 18.9437C98.4196 18.8206 98.2296 18.6869 98.0644 18.5424L98.5352 17.7881C98.5958 17.6971 98.6673 17.6276 98.7499 17.5794C98.8325 17.5313 98.9371 17.5072 99.0638 17.5072C99.1904 17.5072 99.3088 17.542 99.4189 17.6115C99.5345 17.6811 99.6667 17.756 99.8153 17.8362C99.964 17.9165 100.137 17.9914 100.336 18.0609C100.539 18.1305 100.795 18.1652 101.104 18.1652C101.346 18.1652 101.552 18.1385 101.723 18.085C101.899 18.0261 102.042 17.9512 102.153 17.8603C102.268 17.7693 102.351 17.665 102.4 17.5473C102.455 17.4243 102.483 17.2985 102.483 17.1701C102.483 16.9775 102.422 16.8197 102.301 16.6967C102.186 16.5736 102.029 16.4666 101.83 16.3757C101.638 16.2847 101.415 16.2045 101.162 16.1349C100.914 16.06 100.658 15.9798 100.393 15.8942C100.135 15.8086 99.8786 15.7096 99.6254 15.5972C99.3776 15.4795 99.1546 15.3324 98.9564 15.1559C98.7637 14.9793 98.6068 14.7626 98.4856 14.5058C98.37 14.249 98.3122 13.9387 98.3122 13.5749C98.3122 13.2379 98.381 12.9169 98.5187 12.6119C98.6563 12.307 98.8573 12.0422 99.1216 11.8175C99.3914 11.5874 99.7245 11.4055 100.121 11.2718C100.523 11.1327 100.985 11.0631 101.508 11.0631C102.092 11.0631 102.623 11.1567 103.102 11.344C103.581 11.5312 103.981 11.7773 104.3 12.0823L103.837 12.7965Z" fill="#F1F5F3"/>
<path d="M109.676 11.0631C110.303 11.0631 110.873 11.1621 111.385 11.36C111.903 11.558 112.343 11.8389 112.707 12.2027C113.076 12.5665 113.359 13.0105 113.557 13.5348C113.756 14.0591 113.855 14.6449 113.855 15.2923C113.855 15.945 113.756 16.5335 113.557 17.0578C113.359 17.5821 113.076 18.0288 112.707 18.398C112.343 18.7671 111.903 19.0507 111.385 19.2486C110.873 19.4466 110.303 19.5455 109.676 19.5455C109.043 19.5455 108.467 19.4466 107.95 19.2486C107.432 19.0507 106.989 18.7671 106.62 18.398C106.257 18.0288 105.973 17.5821 105.769 17.0578C105.571 16.5335 105.472 15.945 105.472 15.2923C105.472 14.6449 105.571 14.0591 105.769 13.5348C105.973 13.0105 106.257 12.5665 106.62 12.2027C106.989 11.8389 107.432 11.558 107.95 11.36C108.467 11.1621 109.043 11.0631 109.676 11.0631ZM109.676 18.0208C110.38 18.0208 110.901 17.7907 111.237 17.3306C111.578 16.8705 111.749 16.1964 111.749 15.3083C111.749 14.4202 111.578 13.7435 111.237 13.278C110.901 12.8126 110.38 12.5798 109.676 12.5798C108.96 12.5798 108.429 12.8152 108.082 13.286C107.74 13.7515 107.57 14.4256 107.57 15.3083C107.57 16.1911 107.74 16.8652 108.082 17.3306C108.429 17.7907 108.96 18.0208 109.676 18.0208Z" fill="#F1F5F3"/>
<path d="M117.335 12.62C117.6 12.1278 117.913 11.7426 118.277 11.4644C118.64 11.1808 119.07 11.039 119.565 11.039C119.956 11.039 120.27 11.122 120.507 11.2878L120.375 12.7724C120.347 12.8687 120.306 12.9383 120.251 12.9811C120.201 13.0185 120.132 13.0373 120.044 13.0373C119.962 13.0373 119.838 13.0239 119.673 12.9971C119.513 12.9704 119.356 12.957 119.202 12.957C118.976 12.957 118.775 12.9891 118.599 13.0533C118.423 13.1175 118.263 13.2111 118.12 13.3342C117.982 13.4519 117.858 13.5963 117.748 13.7675C117.644 13.9387 117.545 14.134 117.451 14.3534V19.4252H115.411V11.1915H116.609C116.818 11.1915 116.964 11.229 117.046 11.3039C117.129 11.3734 117.184 11.5018 117.211 11.6891L117.335 12.62Z" fill="#F1F5F3"/>
<defs>
<linearGradient id="paint0_linear_129_3833" x1="7.59678" y1="0" x2="7.59678" y2="5.64147" gradientUnits="userSpaceOnUse">
<stop stop-color="#03A268"/>
<stop offset="1" stop-color="#005738" stop-opacity="0.88"/>
</linearGradient>
<linearGradient id="paint1_linear_129_3833" x1="5.40119" y1="6.98469" x2="19.2383" y2="25.6766" gradientUnits="userSpaceOnUse">
<stop stop-color="#11DE94"/>
<stop offset="1" stop-color="#11DE94" stop-opacity="0"/>
</linearGradient>
<linearGradient id="paint2_linear_129_3833" x1="11.7624" y1="12.2674" x2="-1.93721" y2="20.1006" gradientUnits="userSpaceOnUse">
<stop stop-color="#72FFCC" stop-opacity="0.59"/>
<stop offset="1" stop-color="#47EAAF" stop-opacity="0"/>
</linearGradient>
<linearGradient id="paint3_linear_129_3833" x1="24.7583" y1="31.302" x2="15.658" y2="9.54695" gradientUnits="userSpaceOnUse">
<stop stop-color="#004F32"/>
<stop offset="1" stop-color="#00B171" stop-opacity="0"/>
</linearGradient>
<linearGradient id="paint4_linear_129_3833" x1="9.73604" y1="10.045" x2="7.71669" y2="15.8837" gradientUnits="userSpaceOnUse">
<stop stop-color="white"/>
<stop offset="1" stop-color="white" stop-opacity="0"/>
</linearGradient>
</defs>
</svg>
