<svg width="1200" height="800" viewBox="0 0 1200 800" fill="none" xmlns="http://www.w3.org/2000/svg">
  <g clip-path="url(#clip0_48_508)">
    <g opacity="0.5">
      <g opacity="0.5">
        <path
          d="M599.433 536.483C523.979 536.483 462.812 475.316 462.812 399.863C462.812 324.409 523.979 263.242 599.433 263.242C674.886 263.242 736.053 324.409 736.053 399.863C736.053 475.316 674.886 536.483 599.433 536.483Z"
          fill="#212023" />
        <path
          d="M599.433 536.483C523.979 536.483 462.812 475.316 462.812 399.863C462.812 324.409 523.979 263.242 599.433 263.242C674.886 263.242 736.053 324.409 736.053 399.863C736.053 475.316 674.886 536.483 599.433 536.483Z"
          stroke="#C9C9C9" stroke-width="2.418" />
      </g>
      <path d="M404.709 596.58L796.15 205.139" stroke="url(#paint0_linear_48_508)" stroke-width="2.418" />
      <path d="M403.57 398.654H795.296" stroke="url(#paint1_linear_48_508)" stroke-width="2.418" />
      <path d="M598.224 595.725V204" stroke="url(#paint2_linear_48_508)" stroke-width="2.418" />
      <path d="M794.441 596.581L403 205.141" stroke="#646470" stroke-width="2.418" />
      <path
        d="M599.433 456.686C568.049 456.686 542.608 431.245 542.608 399.862C542.608 368.478 568.049 343.037 599.433 343.037C630.816 343.037 656.257 368.478 656.257 399.862C656.257 431.245 630.816 456.686 599.433 456.686Z"
        fill="#1A1A1D" />
      <mask id="mask0_48_508" style="mask-type:luminance" maskUnits="userSpaceOnUse" x="580" y="380" width="39"
        height="40">
        <path d="M580.088 380.518H618.777V419.207H580.088V380.518Z" fill="white" />
      </mask>
      <g mask="url(#mask0_48_508)">
        <path
          d="M615.65 386.563V386.063H615.15H583.716H583.216V386.563V402.739V403.946L584.069 403.092L587.622 399.538L587.622 399.538L588.007 399.154H596.868H597.075L597.221 399.007L597.295 398.933L605.612 390.617H607.763L614.796 397.651L615.65 398.505V397.298V386.563ZM599.079 400.866L598.73 401.219L599.081 401.57L602.779 405.269L602.779 405.269L603.709 406.198L601.851 408.055L600.923 407.126L600.922 407.126L595.722 401.927L595.576 401.781H595.369H589.303H589.096L588.949 401.927L583.435 407.441L583.362 407.514L583.216 407.66V407.868V410.744C583.216 411.517 583.523 412.26 584.071 412.807C584.618 413.354 585.36 413.662 586.134 413.662H612.732C613.506 413.662 614.248 413.354 614.795 412.807C615.342 412.26 615.65 411.517 615.65 410.744V402.427V402.219L615.503 402.073L607.04 393.61L606.687 393.256L606.333 393.61L599.152 400.791L599.15 400.794L599.079 400.866ZM580.588 406.659V406.573V406.452V406.366V383.436H618.277V400.925V401.134L618.426 401.281L618.497 401.351L618.5 401.354L619.426 402.28L618.423 403.282L618.277 403.428V403.636V410.744V410.744C618.277 411.472 618.134 412.193 617.855 412.866C617.576 413.539 617.168 414.15 616.653 414.665C616.138 415.18 615.527 415.588 614.854 415.867C614.181 416.145 613.46 416.289 612.732 416.289H612.732H586.134H586.134C585.406 416.289 584.684 416.145 584.012 415.867C583.339 415.588 582.727 415.18 582.212 414.665C581.697 414.15 581.289 413.539 581.01 412.866C580.731 412.193 580.588 411.472 580.588 410.744V406.659Z"
          fill="#AFAFC3" stroke="#7E7E8B" />
      </g>
      <path
        d="M599.433 456.686C568.049 456.686 542.608 431.245 542.608 399.862C542.608 368.478 568.049 343.037 599.433 343.037C630.816 343.037 656.257 368.478 656.257 399.862C656.257 431.245 630.816 456.686 599.433 456.686Z"
        stroke="#7E7E8B" stroke-width="2.418" />
    </g>
  </g>
  <defs>
    <linearGradient id="paint0_linear_48_508" x1="nan" y1="nan" x2="nan" y2="nan" gradientUnits="userSpaceOnUse">
      <stop stop-color="#C9C9C9" stop-opacity="0" />
      <stop offset="0.208" stop-color="#C9C9C9" />
      <stop offset="0.792" stop-color="#C9C9C9" />
      <stop offset="1" stop-color="#C9C9C9" stop-opacity="0" />
    </linearGradient>
    <linearGradient id="paint1_linear_48_508" x1="nan" y1="nan" x2="nan" y2="nan" gradientUnits="userSpaceOnUse">
      <stop stop-color="#C9C9C9" stop-opacity="0" />
      <stop offset="0.208" stop-color="#C9C9C9" />
      <stop offset="0.792" stop-color="#C9C9C9" />
      <stop offset="1" stop-color="#C9C9C9" stop-opacity="0" />
    </linearGradient>
    <linearGradient id="paint2_linear_48_508" x1="nan" y1="nan" x2="nan" y2="nan" gradientUnits="userSpaceOnUse">
      <stop stop-color="#C9C9C9" stop-opacity="0" />
      <stop offset="0.208" stop-color="#C9C9C9" />
      <stop offset="0.792" stop-color="#C9C9C9" />
      <stop offset="1" stop-color="#C9C9C9" stop-opacity="0" />
    </linearGradient>
    <clipPath id="clip0_48_508">
      <rect width="1200" height="800" fill="white" />
    </clipPath>
  </defs>
</svg>