<svg width="279" height="78" viewBox="0 0 279 78" fill="none" xmlns="http://www.w3.org/2000/svg">
<circle cx="38.75" cy="38.75" r="38.75" fill="#FE6162"/>
<g clip-path="url(#clip0_1846_4327)">
<path d="M59.3222 59.8734C58.9645 58.5478 58.0008 57.9052 56.6561 58.0364C54.0529 58.2887 53.1885 57.4544 51.9531 55.6208C55.2088 56.3105 57.3086 55.4627 57.9643 55.0858C58.8089 54.598 59.6634 53.9722 59.3256 52.8687C58.9944 51.7887 58.0008 51.5734 56.9807 51.7685C55.5334 52.0444 54.1456 52.2059 53.0196 50.7962C53.258 50.5809 53.4965 50.3589 53.7416 50.1469C54.341 49.6321 54.8047 49.0266 54.5 48.209C54.2086 47.4285 53.47 46.981 52.7182 47.1189C52.1055 47.2333 50.8767 47.6169 50.5025 46.9911L50.519 46.9844C50.3766 46.9507 50.158 46.3653 50.1117 45.938C49.8931 43.8487 50.7972 41.8436 52.016 40.1782C53.5362 38.1091 54.5795 35.828 55.0432 33.298C55.7685 29.328 55.0001 25.6339 52.854 22.2392C50.3071 18.2086 46.7169 15.5541 41.9907 14.5784C40.8812 14.3496 39.7982 14.2285 38.7483 14.2083C37.6951 14.2285 36.6154 14.3496 35.5059 14.5784C30.7831 15.5541 27.1896 18.2086 24.6427 22.2392C22.4998 25.6339 21.7315 29.328 22.4535 33.298C22.9138 35.8314 23.9604 38.1091 25.4806 40.1782C26.7027 41.8436 27.6069 43.8454 27.385 45.938C27.3386 46.3653 27.12 46.9507 26.9776 46.9844L26.9942 46.9911C26.6199 47.6135 25.3945 47.2333 24.7785 47.1189C24.03 46.981 23.2881 47.4285 22.9966 48.209C22.6919 49.0266 23.1523 49.6321 23.7551 50.1469C24.0002 50.3589 24.2386 50.5809 24.4771 50.7962C23.351 52.2059 21.96 52.0444 20.516 51.7685C19.4959 51.5734 18.5023 51.7887 18.1711 52.8687C17.8333 53.9722 18.6878 54.598 19.5323 55.0858C20.1848 55.4627 22.2879 56.3071 25.5435 55.6208C24.3082 57.4544 23.4438 58.2887 20.8406 58.0364C19.4959 57.9052 18.5288 58.5478 18.1744 59.8734C17.8267 61.1687 18.5122 62.0973 19.5986 62.7163C20.3106 63.12 21.1055 63.2782 21.9467 63.2916C26.5537 63.3555 30.3558 61.4547 33.7804 58.5949C35.6649 57.0204 37.2149 56.223 38.7516 56.2028C40.2884 56.223 41.8351 57.0204 43.7229 58.5949C47.1475 61.4547 50.9496 63.3555 55.5565 63.2916C56.3978 63.2815 57.1926 63.12 57.9047 62.7163C58.9944 62.0973 59.6766 61.1687 59.3289 59.8734H59.3222ZM32.3894 44.1784C30.9652 44.1751 29.7895 42.9841 29.7862 41.5475C29.7862 40.084 30.9752 38.8862 32.4424 38.8728C33.8367 38.8593 35.0787 40.1815 35.0654 41.6652C35.0522 43.1355 33.9327 44.1852 32.3894 44.1784ZM45.104 44.1784C43.5573 44.1852 42.4412 43.1321 42.4279 41.6652C42.4147 40.1815 43.66 38.8593 45.051 38.8728C46.5182 38.8896 47.7072 40.0873 47.7072 41.5475C47.7072 42.9841 46.5281 44.1751 45.104 44.1784Z" fill="white"/>
</g>
<path d="M274.248 27.2181C271.571 27.2181 269.441 25.0507 269.441 22.3276C269.441 19.6045 271.571 17.4927 274.248 17.4927C276.87 17.4927 279 19.6045 279 22.3276C279 25.0507 276.87 27.2181 274.248 27.2181ZM270.096 59.3397V31.5529H278.508V59.3397H270.096Z" fill="white"/>
<path d="M247.51 60.0625C241.72 60.0625 238.115 56.6169 238.115 51.1707C238.115 46.0579 241.665 42.8902 248.221 42.3901L255.868 41.7788V41.3342C255.868 38.6111 254.229 37.1661 251.225 37.1661C247.674 37.1661 245.762 38.5555 245.762 41.0563H238.77C238.77 34.7765 243.851 30.664 251.662 30.664C259.583 30.664 264.062 35.1655 264.062 43.1125V59.34H256.633L256.087 55.6722C255.213 58.2285 251.607 60.0625 247.51 60.0625ZM250.46 53.7271C253.683 53.7271 255.923 52.1154 255.923 48.9478V47.4473L251.662 47.8363C248.002 48.1697 246.691 49.0033 246.691 50.7817C246.691 52.7823 247.893 53.7271 250.46 53.7271Z" fill="white"/>
<path d="M217.481 59.34H209.069V17.4375H217.481V41.5564L226.33 31.5532H236.873L226.604 42.5567L236.545 59.34H226.822L220.704 48.9477L217.481 52.3933V59.34Z" fill="white"/>
<path d="M184.353 59.34H175.941V31.5532H183.862L184.408 34.443C186.101 32.0534 189.215 30.664 192.766 30.664C199.266 30.664 203.035 34.8876 203.035 42.1678V59.34H194.623V44.224C194.623 40.7229 192.711 38.4443 189.816 38.4443C186.484 38.4443 184.353 40.6673 184.353 44.1128V59.34Z" fill="white"/>
<path d="M165.369 27.2181C162.693 27.2181 160.562 25.0507 160.562 22.3276C160.562 19.6045 162.693 17.4927 165.369 17.4927C167.991 17.4927 170.122 19.6045 170.122 22.3276C170.122 25.0507 167.991 27.2181 165.369 27.2181ZM161.218 59.3397V31.5529H169.63V59.3397H161.218Z" fill="white"/>
<path d="M136.503 59.34H128.09V17.4375H136.557V34.443C138.251 32.0533 141.364 30.664 144.915 30.664C151.415 30.664 155.185 34.8876 155.185 42.1677V59.34H146.772V44.2239C146.772 40.7228 144.86 38.4443 141.965 38.4443C138.633 38.4443 136.503 40.6672 136.503 44.1128V59.34Z" fill="white"/>
<path d="M93.6008 30.1638C93.6008 22.717 99.7735 17.4375 108.459 17.4375C117.144 17.4375 122.607 22.3279 122.607 30.1083H113.812C113.812 27.2184 111.682 25.4401 108.35 25.4401C104.744 25.4401 102.45 27.1073 102.45 29.8304C102.45 32.3312 103.707 33.5538 106.547 34.1651L112.611 35.4433C119.821 36.9438 123.263 40.4449 123.263 46.9471C123.263 54.8941 117.144 60.0624 107.858 60.0624C98.8448 60.0624 92.9999 55.1164 92.9999 47.3916H101.795C101.795 50.3926 103.98 52.0598 107.913 52.0598C111.9 52.0598 114.413 50.4482 114.413 47.8362C114.413 45.5577 113.375 44.3907 110.699 43.8349L104.526 42.5567C97.3153 41.0563 93.6008 36.8882 93.6008 30.1638Z" fill="white"/>
<defs>
<clipPath id="clip0_1846_4327">
<rect width="51.6666" height="51.6666" fill="white" transform="translate(12.9167 12.9167)"/>
</clipPath>
</defs>
</svg>
