<svg width="24" height="24" viewBox="0 0 24 24" fill="none" xmlns="http://www.w3.org/2000/svg">
<path d="M6.6 3C4.61177 3 3 4.61177 3 6.6V9.3H4.8V6.6C4.8 5.60589 5.60589 4.8 6.6 4.8H17.4C18.3941 4.8 19.2 5.60589 19.2 6.6V17.4C19.2 18.3941 18.3941 19.2 17.4 19.2H6.6C5.60589 19.2 4.8 18.3941 4.8 17.4V14.7H3V17.4C3 19.3882 4.61177 21 6.6 21H17.4C19.3882 21 21 19.3882 21 17.4V6.6C21 4.61177 19.3882 3 17.4 3H6.6Z" fill="#909A95"/>
<path d="M3.9 11.1C3.40295 11.1 3 11.5029 3 12C3 12.4971 3.40295 12.9 3.9 12.9H12.5243L10.2422 15.1819C9.89076 15.5335 9.89076 16.1033 10.2422 16.4548C10.5937 16.8063 11.1635 16.8063 11.515 16.4548L15.2911 12.6787C15.4804 12.5136 15.6 12.2708 15.6 12C15.6 11.7292 15.4804 11.4864 15.2911 11.3213L11.515 7.54522C11.1635 7.19375 10.5937 7.19375 10.2422 7.54522C9.89076 7.89669 9.89076 8.46655 10.2422 8.81801L12.5243 11.1H3.9Z" fill="#909A95"/>
</svg>
