<svg width="24" height="24" viewBox="0 0 24 24" fill="none" xmlns="http://www.w3.org/2000/svg">
<path d="M18.3 5H5.7C4.98392 5 4.29716 5.28446 3.79081 5.79081C3.28446 6.29716 3 6.98392 3 7.7V16.7C3 17.4161 3.28446 18.1028 3.79081 18.6092C4.29716 19.1155 4.98392 19.4 5.7 19.4H18.3C19.0161 19.4 19.7028 19.1155 20.2092 18.6092C20.7155 18.1028 21 17.4161 21 16.7V7.7C21 6.98392 20.7155 6.29716 20.2092 5.79081C19.7028 5.28446 19.0161 5 18.3 5ZM5.7 6.8H18.3C18.5387 6.8 18.7676 6.89482 18.9364 7.0636C19.1052 7.23239 19.2 7.46131 19.2 7.7L12 12.092L4.8 7.7C4.8 7.46131 4.89482 7.23239 5.0636 7.0636C5.23239 6.89482 5.46131 6.8 5.7 6.8ZM19.2 16.7C19.2 16.9387 19.1052 17.1676 18.9364 17.3364C18.7676 17.5052 18.5387 17.6 18.3 17.6H5.7C5.46131 17.6 5.23239 17.5052 5.0636 17.3364C4.89482 17.1676 4.8 16.9387 4.8 16.7V9.752L11.532 13.865C11.6688 13.944 11.824 13.9856 11.982 13.9856C12.14 13.9856 12.2952 13.944 12.432 13.865L19.2 9.752V16.7Z" fill="#909A95"/>
</svg>
