<svg width="34" height="42" viewBox="0 0 34 42" fill="none" xmlns="http://www.w3.org/2000/svg">
<path d="M29.1481 15.8985V11.7407C29.1481 5.81852 23.8311 1 17.2963 1C10.7615 1 5.44444 5.81852 5.44444 11.7407V15.8985C2.92519 16.3326 1 18.5281 1 21.1704V35.6459C1 38.5978 3.40222 41 6.35482 41H28.2378C31.1904 41 33.5926 38.5978 33.5926 35.6452V21.1696C33.5926 18.5281 31.6674 16.3326 29.1481 15.8985ZM6.92593 11.7407C6.92593 6.63481 11.5778 2.48148 17.2963 2.48148C23.0148 2.48148 27.6667 6.63481 27.6667 11.7407V15.8148H6.92593V11.7407ZM32.1111 35.6452C32.1111 37.7807 30.3733 39.5185 28.2378 39.5185H6.35482C4.21926 39.5185 2.48148 37.7807 2.48148 35.6452V21.1696C2.48148 19.0341 4.21926 17.2963 6.35482 17.2963H28.2378C30.3733 17.2963 32.1111 19.0341 32.1111 21.1696V35.6452Z" fill="#67736D" stroke="#67736D" stroke-width="0.5"/>
<path d="M17.2963 21.7407C15.6622 21.7407 14.3333 23.0696 14.3333 24.7037V29.1481C14.3333 30.7822 15.6622 32.1111 17.2963 32.1111C18.9304 32.1111 20.2592 30.7822 20.2592 29.1481V24.7037C20.2592 23.0696 18.9304 21.7407 17.2963 21.7407ZM18.7778 29.1481C18.7778 29.9652 18.1133 30.6296 17.2963 30.6296C16.4792 30.6296 15.8148 29.9652 15.8148 29.1481V24.7037C15.8148 23.8866 16.4792 23.2222 17.2963 23.2222C18.1133 23.2222 18.7778 23.8866 18.7778 24.7037V29.1481Z" fill="#67736D" stroke="#67736D" stroke-width="0.5"/>
</svg>
