<svg width="24" height="24" viewBox="0 0 24 24" fill="none" xmlns="http://www.w3.org/2000/svg">
<path d="M21.92,8.07H15.39V1.54h2.3V0H14.88a1,1,0,0,0-1,1V8.57a1,1,0,0,0,1,1h7.55a1,1,0,0,0,1-1V5.76H21.92Z" style="fill:#909a95"/><path d="M23.46.34A.34.34,0,0,0,23.12,0H19.33V1.54h1.55L17.39,5l1,1,3.49-3.5V4.13h1.54Z" style="fill:#909a95"/><path d="M4.62,6a.67.67,0,0,0-1.29.35l.36,1.33A5.38,5.38,0,0,0,.53,14l1,3.69L0,22.08a.67.67,0,0,0,.14.68.66.66,0,0,0,.66.18l3.91-1a2.69,2.69,0,0,0,5.31-.59,2.63,2.63,0,0,0-.12-.8l5.15-1.38a.69.69,0,0,0,.48-.5.68.68,0,0,0-.21-.65l-3.48-3.06-1-3.69A5.37,5.37,0,0,0,5,7.31ZM6.05,21.55a1.35,1.35,0,0,0,2.67-.24,1.44,1.44,0,0,0-.08-.46ZM7.72,9.14a4,4,0,0,1,1.87,2.44l1.05,3.88a.59.59,0,0,0,.2.33l2.69,2.37L1.71,21.33l1.14-3.4a.65.65,0,0,0,0-.39s-.51-1.89-1-3.88A4,4,0,0,1,4.67,8.74h0A4,4,0,0,1,7.72,9.14Z" style="fill:#909a95;fill-rule:evenodd"/>
</svg>
