<svg width="18" height="22" viewBox="0 0 18 22" fill="none" xmlns="http://www.w3.org/2000/svg">
<path d="M15.0741 8.44926V6.37037C15.0741 3.40926 12.4156 1 9.14815 1C5.88074 1 3.22222 3.40926 3.22222 6.37037V8.44926C1.96259 8.6663 1 9.76407 1 11.0852V18.323C1 19.7989 2.20111 21 3.67741 21H14.6189C16.0952 21 17.2963 19.7989 17.2963 18.3226V11.0848C17.2963 9.76407 16.3337 8.6663 15.0741 8.44926ZM3.96296 6.37037C3.96296 3.81741 6.28889 1.74074 9.14815 1.74074C12.0074 1.74074 14.3333 3.81741 14.3333 6.37037V8.40741H3.96296V6.37037ZM16.5556 18.3226C16.5556 19.3904 15.6867 20.2593 14.6189 20.2593H3.67741C2.60963 20.2593 1.74074 19.3904 1.74074 18.3226V11.0848C1.74074 10.017 2.60963 9.14815 3.67741 9.14815H14.6189C15.6867 9.14815 16.5556 10.017 16.5556 11.0848V18.3226Z" fill="white" stroke="white" stroke-width="0.5"/>
<path d="M9.14814 11.3704C8.3311 11.3704 7.66666 12.0348 7.66666 12.8518V15.0741C7.66666 15.8911 8.3311 16.5555 9.14814 16.5555C9.96518 16.5555 10.6296 15.8911 10.6296 15.0741V12.8518C10.6296 12.0348 9.96518 11.3704 9.14814 11.3704ZM9.88888 15.0741C9.88888 15.4826 9.55666 15.8148 9.14814 15.8148C8.73962 15.8148 8.4074 15.4826 8.4074 15.0741V12.8518C8.4074 12.4433 8.73962 12.1111 9.14814 12.1111C9.55666 12.1111 9.88888 12.4433 9.88888 12.8518V15.0741Z" fill="white" stroke="white" stroke-width="0.5"/>
</svg>
