<svg width="384" height="541" viewBox="0 0 384 541" fill="none" xmlns="http://www.w3.org/2000/svg">
  <g clip-path="url(#clip0_73_698)">
    <path
      d="M365.605 434.684H77.338C75.923 434.682 74.566 434.119 73.565 433.118C72.565 432.118 72.002 430.761 72 429.346V357.838C72.002 356.423 72.565 355.066 73.565 354.065C74.566 353.065 75.923 352.502 77.338 352.5H365.605C367.02 352.502 368.377 353.065 369.378 354.065C370.378 355.066 370.941 356.423 370.943 357.838V429.345C370.941 430.76 370.379 432.117 369.378 433.118C368.377 434.119 367.02 434.682 365.605 434.684ZM77.338 354.631C76.49 354.633 75.677 354.971 75.077 355.57C74.478 356.17 74.14 356.983 74.138 357.831V429.338C74.14 430.186 74.478 430.999 75.077 431.599C75.677 432.198 76.49 432.536 77.338 432.538H365.605C366.453 432.536 367.266 432.199 367.866 431.599C368.466 430.999 368.803 430.186 368.805 429.338V357.838C368.803 356.99 368.466 356.177 367.866 355.577C367.266 354.977 366.453 354.64 365.605 354.638L77.338 354.631Z"
      fill="#3F3D56" />
    <path
      d="M50.1281 520.99C62.1371 520.99 71.873 511.254 71.873 499.245C71.873 487.236 62.1371 477.5 50.1281 477.5C38.1191 477.5 28.3831 487.236 28.3831 499.245C28.3831 511.254 38.1191 520.99 50.1281 520.99Z"
      fill="#E6E6E6" />
    <path
      d="M100.35 485.499C99.3891 485.499 98.467 485.881 97.787 486.56C97.108 487.24 96.7261 488.162 96.7261 489.123C96.7261 490.084 97.108 491.006 97.787 491.686C98.467 492.365 99.3891 492.747 100.35 492.747H271.206C271.682 492.748 272.153 492.655 272.593 492.474C273.033 492.293 273.434 492.027 273.771 491.691C274.108 491.355 274.376 490.956 274.559 490.517C274.742 490.077 274.836 489.606 274.837 489.13C274.838 488.654 274.745 488.183 274.564 487.743C274.383 487.303 274.117 486.903 273.781 486.566C273.445 486.228 273.046 485.961 272.607 485.778C272.167 485.595 271.696 485.5 271.22 485.499H100.35Z"
      fill="#E6E6E6" />
    <path
      d="M100.35 507.245C99.389 507.243 98.466 507.623 97.785 508.301C97.104 508.98 96.721 509.901 96.719 510.862C96.717 511.823 97.097 512.746 97.775 513.427C98.454 514.108 99.375 514.491 100.336 514.493H173.87C174.831 514.493 175.753 514.111 176.433 513.432C177.112 512.752 177.494 511.83 177.494 510.869C177.494 509.908 177.112 508.986 176.433 508.307C175.753 507.627 174.831 507.245 173.87 507.245H100.35Z"
      fill="#E6E6E6" />
    <path
      d="M122.128 414.99C134.137 414.99 143.873 405.254 143.873 393.245C143.873 381.236 134.137 371.5 122.128 371.5C110.119 371.5 100.383 381.236 100.383 393.245C100.383 405.254 110.119 414.99 122.128 414.99Z"
      fill="#E6E6E6" />
    <path
      d="M172.35 379.499C171.389 379.499 170.467 379.881 169.787 380.56C169.108 381.24 168.726 382.162 168.726 383.123C168.726 384.084 169.108 385.006 169.787 385.686C170.467 386.365 171.389 386.747 172.35 386.747H343.206C344.167 386.747 345.089 386.365 345.769 385.686C346.448 385.006 346.83 384.084 346.83 383.123C346.83 382.162 346.448 381.24 345.769 380.56C345.089 379.881 344.167 379.499 343.206 379.499H172.35Z"
      fill="#E6E6E6" />
    <path
      d="M172.35 401.245C171.389 401.245 170.467 401.627 169.787 402.307C169.108 402.986 168.726 403.908 168.726 404.869C168.726 405.83 169.108 406.752 169.787 407.432C170.467 408.111 171.389 408.493 172.35 408.493H245.87C246.831 408.493 247.753 408.111 248.433 407.432C249.112 406.752 249.494 405.83 249.494 404.869C249.494 403.908 249.112 402.986 248.433 402.307C247.753 401.627 246.831 401.245 245.87 401.245H172.35Z"
      fill="#E6E6E6" />
    <path
      d="M309.605 257.684H21.338C19.923 257.682 18.566 257.119 17.565 256.118C16.565 255.118 16.002 253.761 16 252.346V5.838C16.002 4.42284 16.565 3.06617 17.565 2.06551C18.566 1.06484 19.923 0.501852 21.338 0.5H309.605C311.02 0.501852 312.377 1.06484 313.378 2.06551C314.378 3.06617 314.941 4.42284 314.943 5.838V252.345C314.941 253.76 314.378 255.117 313.378 256.118C312.377 257.119 311.02 257.682 309.605 257.684ZM21.338 2.631C20.49 2.63285 19.677 2.97058 19.077 3.5703C18.478 4.17001 18.14 4.98287 18.138 5.83099V252.345C18.14 253.193 18.478 254.006 19.077 254.606C19.677 255.205 20.49 255.543 21.338 255.545H309.605C310.453 255.543 311.266 255.206 311.866 254.606C312.466 254.006 312.803 253.193 312.805 252.345V5.838C312.803 4.98987 312.465 4.17702 311.866 3.5773C311.266 2.97759 310.453 2.63985 309.605 2.638L21.338 2.631Z"
      fill="#3F3D56" />
    <path
      d="M66.1281 65.5925C78.1371 65.5925 87.873 55.857 87.873 43.8475C87.873 31.8381 78.1371 22.1025 66.1281 22.1025C54.1191 22.1025 44.3831 31.8381 44.3831 43.8475C44.3831 55.857 54.1191 65.5925 66.1281 65.5925Z"
      fill="#19242D" />
    <path
      d="M116.35 29.3516C115.389 29.3516 114.467 29.7334 113.787 30.413C113.108 31.0927 112.726 32.0144 112.726 32.9756C112.726 33.9367 113.108 34.8585 113.787 35.5381C114.467 36.2178 115.389 36.5996 116.35 36.5996H287.206C288.167 36.5996 289.089 36.2178 289.769 35.5381C290.448 34.8585 290.83 33.9367 290.83 32.9756C290.83 32.0144 290.448 31.0927 289.769 30.413C289.089 29.7334 288.167 29.3516 287.206 29.3516H116.35Z"
      fill="#CCCCCC" />
    <path
      d="M116.35 51.0977C115.389 51.0977 114.467 51.4795 113.787 52.1591C113.108 52.8387 112.726 53.7605 112.726 54.7217C112.726 55.6828 113.108 56.6046 113.787 57.2842C114.467 57.9639 115.389 58.3457 116.35 58.3457H189.87C190.831 58.3457 191.753 57.9639 192.433 57.2842C193.112 56.6046 193.494 55.6828 193.494 54.7217C193.494 53.7605 193.112 52.8387 192.433 52.1591C191.753 51.4795 190.831 51.0977 189.87 51.0977H116.35Z"
      fill="#CCCCCC" />
    <path
      d="M378.094 225.705H89.826C88.411 225.704 87.054 225.141 86.053 224.14C85.053 223.14 84.49 221.783 84.488 220.367V93.8605C84.49 92.4452 85.053 91.0884 86.053 90.0877C87.054 89.087 88.411 88.524 89.826 88.5225H378.094C379.509 88.524 380.866 89.087 381.867 90.0877C382.868 91.0884 383.43 92.4452 383.432 93.8605V220.367C383.43 221.783 382.868 223.14 381.867 224.14C380.866 225.141 379.509 225.704 378.094 225.705Z"
      fill="#19242D" />
    <path
      d="M148.532 132.616C147.571 132.616 146.649 132.998 145.969 133.678C145.29 134.357 144.908 135.279 144.908 136.24C144.908 137.201 145.29 138.123 145.969 138.803C146.649 139.482 147.571 139.864 148.532 139.864H319.389C320.35 139.864 321.272 139.482 321.952 138.803C322.631 138.123 323.013 137.201 323.013 136.24C323.013 135.279 322.631 134.357 321.952 133.678C321.272 132.998 320.35 132.616 319.389 132.616H148.532Z"
      fill="white" />
    <path
      d="M148.532 153.616C147.571 153.616 146.649 153.998 145.969 154.678C145.29 155.357 144.908 156.279 144.908 157.24C144.908 158.201 145.29 159.123 145.969 159.803C146.649 160.482 147.571 160.864 148.532 160.864H319.389C320.35 160.864 321.272 160.482 321.952 159.803C322.631 159.123 323.013 158.201 323.013 157.24C323.013 156.279 322.631 155.357 321.952 154.678C321.272 153.998 320.35 153.616 319.389 153.616H148.532Z"
      fill="white" />
    <path
      d="M148.532 174.362C147.571 174.362 146.649 174.744 145.969 175.424C145.29 176.103 144.908 177.025 144.908 177.986C144.908 178.947 145.29 179.869 145.969 180.549C146.649 181.228 147.571 181.61 148.532 181.61H222.052C223.013 181.61 223.935 181.228 224.615 180.549C225.294 179.869 225.676 178.947 225.676 177.986C225.676 177.025 225.294 176.103 224.615 175.424C223.935 174.744 223.013 174.362 222.052 174.362H148.532Z"
      fill="white" />
    <path
      d="M293.605 540.684H5.338C3.923 540.682 2.566 540.119 1.565 539.118C0.565002 538.118 0.002 536.761 0 535.346V463.838C0.002 462.423 0.564002 461.066 1.565 460.065C2.566 459.064 3.923 458.502 5.338 458.5H293.605C295.02 458.502 296.377 459.065 297.378 460.065C298.378 461.066 298.941 462.423 298.943 463.838V535.345C298.941 536.76 298.378 538.117 297.378 539.117C296.377 540.118 295.02 540.682 293.605 540.684ZM5.338 460.631C4.49 460.633 3.677 460.971 3.077 461.57C2.478 462.17 2.14 462.983 2.138 463.831V535.338C2.14 536.186 2.478 536.999 3.077 537.599C3.677 538.198 4.49 538.536 5.338 538.538H293.605C294.453 538.536 295.266 538.199 295.866 537.599C296.466 536.999 296.803 536.186 296.805 535.338V463.838C296.803 462.99 296.465 462.177 295.866 461.577C295.266 460.978 294.453 460.64 293.605 460.638L5.338 460.631Z"
      fill="#3F3D56" />
  </g>
  <defs>
    <clipPath id="clip0_73_698">
      <rect width="384" height="541" fill="white" />
    </clipPath>
  </defs>
</svg>