<svg width="22" height="22" viewBox="0 0 22 22" fill="none" xmlns="http://www.w3.org/2000/svg">
  <path
    d="M14.465 14.5201C14.465 14.5201 17.0866 11.9167 17.9758 11.0001C20.79 8.25008 19.3875 2.58508 19.3875 2.58508C19.3875 2.58508 13.75 1.18258 11 3.99674C8.85498 6.08674 7.46165 7.53508 7.46165 7.53508C7.46165 7.53508 3.94165 6.80174 1.83331 8.91008L13.0625 20.1667C15.1708 18.0309 14.465 14.5201 14.465 14.5201ZM13.09 6.27008C13.2602 6.09962 13.4624 5.9644 13.685 5.87213C13.9076 5.77987 14.1461 5.73239 14.3871 5.73239C14.628 5.73239 14.8666 5.77987 15.0891 5.87213C15.3117 5.9644 15.5139 6.09962 15.6841 6.27008C15.9403 6.52656 16.1147 6.85323 16.1853 7.2088C16.2559 7.56438 16.2195 7.9329 16.0806 8.26778C15.9418 8.60265 15.7068 8.88886 15.4054 9.09022C15.104 9.29158 14.7496 9.39905 14.3871 9.39905C14.0245 9.39905 13.6702 9.29158 13.3687 9.09022C13.0673 8.88886 12.8323 8.60265 12.6935 8.26778C12.5547 7.9329 12.5182 7.56438 12.5888 7.2088C12.6594 6.85323 12.8338 6.52656 13.09 6.27008ZM2.74998 19.2501C4.44679 19.2017 6.0712 18.5519 7.33331 17.4167L4.58331 14.6667C2.74998 15.5834 2.74998 19.2501 2.74998 19.2501Z"
    fill="#191B1E"
  />
</svg>
