<svg width="36" height="36" viewBox="0 0 36 36" fill="none" xmlns="http://www.w3.org/2000/svg">
    <circle cx="18.3357" cy="18.3352" r="12.9573" fill="white"/>
    <path fill-rule="evenodd" clip-rule="evenodd" d="M34.7053 17.7688C34.7053 27.1684 27.0855 34.7882 17.686 34.7882C8.28644 34.7882 0.666626 27.1684 0.666626 17.7688C0.666626 8.36933 8.28644 0.749512 17.686 0.749512C27.0855 0.749512 34.7053 8.36933 34.7053 17.7688ZM28.0903 15.0833C28.791 15.6405 29.3926 16.3098 29.8716 17.0628C30.0511 17.345 29.938 17.7133 29.6432 17.871L27.4621 19.0381C27.1673 19.1958 26.8036 19.0816 26.6066 18.8114C26.4462 18.5914 26.2654 18.3867 26.0666 18.2002C26.0664 18.2 26.0662 18.2 26.0661 18.2002C26.066 18.2002 26.0659 18.2003 26.0659 18.2003C26.0658 18.2003 26.0656 18.2003 26.0656 18.2002C25.6317 17.7932 25.1192 17.4792 24.5596 17.2774C24.444 17.2358 24.3269 17.1991 24.2086 17.1674C23.7497 17.0445 23.4413 17.5525 23.6193 17.993C23.7809 18.393 23.9045 18.8093 23.9874 19.2365C24.2238 20.4549 24.1198 21.7149 23.6868 22.878C23.2538 24.0412 22.5085 25.0625 21.533 25.8297C20.7165 26.4718 19.7651 26.9152 18.754 27.1287C18.4268 27.1978 18.1248 26.9579 18.0853 26.6259L17.7901 24.1456C17.7506 23.8136 17.9911 23.5181 18.3088 23.4138C18.6446 23.3035 18.9601 23.135 19.2404 22.9146C19.6801 22.5688 20.016 22.1084 20.2112 21.5842C20.4063 21.0599 20.4532 20.492 20.3467 19.9428C20.2507 19.4482 20.0336 18.986 19.7159 18.5971C19.6936 18.5698 19.6684 18.545 19.6413 18.5225L17.3578 16.6229C17.1007 16.4091 17.0641 16.0255 17.2966 15.7853C17.9173 15.144 18.6413 14.6094 19.4398 14.2045C19.8915 13.9754 20.3627 13.7901 20.8469 13.6503C21.2014 13.5479 21.5634 13.4697 21.9304 13.4167C23.0165 13.2599 24.1233 13.3268 25.1826 13.6134C26.2419 13.9 27.2314 14.4002 28.0903 15.0833ZM6.88401 20.4674C6.884 20.4673 6.88402 20.4672 6.88409 20.4671C6.88422 20.467 6.8842 20.4667 6.88407 20.4666C6.38294 20.0173 5.9401 19.5067 5.56598 18.947C5.38018 18.669 5.48482 18.2982 5.77598 18.1339L7.93007 16.9177C8.22123 16.7533 8.5874 16.8593 8.79048 17.1249C9.02784 17.4354 9.3064 17.7133 9.61918 17.9507C10.0931 18.3104 10.6357 18.5694 11.2134 18.7117L11.2249 18.7145C11.6865 18.8269 11.9832 18.3121 11.7953 17.8757C11.6246 17.4795 11.4916 17.0661 11.3991 16.6409C11.1352 15.4281 11.2106 14.1661 11.6171 12.9935C12.0236 11.8208 12.7455 10.7829 13.7034 9.9937C14.5052 9.33322 15.4463 8.86838 16.4523 8.63203C16.7778 8.55555 17.0852 8.7885 17.1322 9.11954L17.4835 11.5925C17.5305 11.9235 17.2968 12.2244 16.9816 12.3359C16.6484 12.4538 16.3367 12.6294 16.0615 12.8561C15.6298 13.2118 15.3044 13.6796 15.1212 14.2082C14.9379 14.7367 14.9039 15.3056 15.0229 15.8522C15.1305 16.3464 15.3593 16.8052 15.6877 17.1877C15.7105 17.2142 15.736 17.2381 15.7633 17.2598L18.0851 19.1037C18.3469 19.3117 18.3922 19.6943 18.1652 19.9397C17.7081 20.4339 17.1908 20.8688 16.6255 21.2342L16.6255 21.2343L16.6255 21.2344C16.0918 21.5793 15.5205 21.8588 14.9241 22.0683C14.2832 22.2934 13.6148 22.4371 12.9346 22.4946C11.8411 22.587 10.7403 22.4549 9.69976 22.1063C8.65932 21.7577 7.70115 21.2 6.88412 20.4676C6.88406 20.4675 6.88402 20.4674 6.88401 20.4674Z" fill="#FE6162"/>
</svg>
