<svg width="195" height="118" viewBox="0 0 195 118" fill="none" xmlns="http://www.w3.org/2000/svg">
<path d="M148 13V19" stroke="#47EAAF" stroke-width="2.5" stroke-linecap="round" stroke-linejoin="round"/>
<path d="M148 27V33" stroke="#47EAAF" stroke-width="2.5" stroke-linecap="round" stroke-linejoin="round"/>
<path d="M138 23H144" stroke="#47EAAF" stroke-width="2.5" stroke-linecap="round" stroke-linejoin="round"/>
<path d="M152 23H158" stroke="#47EAAF" stroke-width="2.5" stroke-linecap="round" stroke-linejoin="round"/>
<path d="M34 40V44" stroke="#47EAAF" stroke-width="2.5" stroke-linecap="round" stroke-linejoin="round"/>
<path d="M34 52V56" stroke="#47EAAF" stroke-width="2.5" stroke-linecap="round" stroke-linejoin="round"/>
<path d="M26 48H30" stroke="#47EAAF" stroke-width="2.5" stroke-linecap="round" stroke-linejoin="round"/>
<path d="M38 48H42" stroke="#47EAAF" stroke-width="2.5" stroke-linecap="round" stroke-linejoin="round"/>
<path opacity="0.2" d="M97.5 0C60.2208 0 30 30.2208 30 67.5C30 74.6472 31.1108 81.5349 33.1692 88H161.831C163.889 81.5349 165 74.6472 165 67.5C165 30.2208 134.779 0 97.5 0Z" fill="#47EAAF"/>
<path d="M11.8953 88.6581H183.412" stroke="#47EAAF" stroke-width="2.27273" stroke-linecap="round" stroke-linejoin="round"/>
<path d="M2 88.6581H7.49734" stroke="#47EAAF" stroke-width="2.27273" stroke-linecap="round" stroke-linejoin="round"/>
<path d="M187.81 88.6581H193.308" stroke="#47EAAF" stroke-width="2.27273" stroke-linecap="round" stroke-linejoin="round"/>
<path fill-rule="evenodd" clip-rule="evenodd" d="M117.805 96.4278C120.038 94.991 122.023 93.1984 123.315 91.7511L117.805 96.4278ZM125.399 89.3461C126.467 88.0377 127.427 86.6693 128.279 85.2531C130.154 82.1382 131.504 78.7917 132.33 75.3415C133.165 71.8521 133.463 68.2566 133.221 64.6873C133.01 61.5727 132.389 58.4781 131.355 55.4913C130.33 52.5281 128.899 49.6711 127.061 47.006C125.966 45.4179 124.726 43.898 123.342 42.4644C121.309 40.3597 119.08 38.5603 116.711 37.0674C114.166 35.4634 111.46 34.2131 108.664 33.3181C105.163 32.1971 101.521 31.6333 97.8786 31.6292C95.0446 31.626 92.2102 31.9617 89.4415 32.6375C86.3245 33.3983 83.2906 34.5903 80.434 36.2151C77.9229 37.6434 75.5488 39.4063 73.3756 41.5049C70.6446 44.1422 68.4324 47.1152 66.7411 50.2969C65.0852 53.4119 63.9286 56.727 63.273 60.1231C62.5977 63.622 62.4542 67.2069 62.8447 70.7475C63.3508 75.3366 64.7539 79.8514 67.0585 84.0084C68.5331 86.6683 70.3768 89.1817 72.5907 91.4743C76.1054 95.1138 80.2087 97.8403 84.6036 99.6479C89.9481 101.846 95.7237 102.685 101.396 102.156C106.157 101.711 110.844 100.302 115.143 97.9229" fill="#1B231F"/>
<path d="M117.805 96.4278L116.996 95.4748L118.482 97.479L117.805 96.4278ZM123.315 91.7511L124.247 92.5834L122.506 90.7982L123.315 91.7511ZM124.431 88.5556C123.994 89.0904 124.074 89.8778 124.608 90.3144C125.143 90.751 125.931 90.6714 126.367 90.1366L124.431 88.5556ZM128.279 85.2531L129.351 85.8975L128.279 85.2531ZM132.33 75.3415L133.546 75.6324L132.33 75.3415ZM133.221 64.6873L131.974 64.7717L131.974 64.7717L133.221 64.6873ZM131.355 55.4913L132.536 55.0825L131.355 55.4913ZM127.061 47.006L128.09 46.2964L128.09 46.2964L127.061 47.006ZM116.711 37.0674L116.045 38.125L116.711 37.0674ZM108.664 33.3181L109.045 32.1276L108.664 33.3181ZM97.8786 31.6292L97.8772 32.8792L97.8786 31.6292ZM89.4415 32.6375L89.7379 33.8518L89.7379 33.8518L89.4415 32.6375ZM80.434 36.2151L81.052 37.3016L81.052 37.3016L80.434 36.2151ZM73.3756 41.5049L74.2439 42.4041L73.3756 41.5049ZM66.7411 50.2969L65.6373 49.7102L65.6373 49.7102L66.7411 50.2969ZM63.273 60.1231L64.5004 60.36L64.5004 60.36L63.273 60.1231ZM62.8447 70.7475L61.6022 70.8845L62.8447 70.7475ZM67.0585 84.0084L65.9652 84.6144L65.9652 84.6144L67.0585 84.0084ZM72.5907 91.4743L73.4899 90.606L72.5907 91.4743ZM84.6036 99.6479L84.1281 100.804L84.1281 100.804L84.6036 99.6479ZM101.396 102.156L101.512 103.4L101.512 103.4L101.396 102.156ZM115.749 99.0166C116.353 98.6823 116.571 97.9216 116.237 97.3176C115.903 96.7136 115.142 96.495 114.538 96.8293L115.749 99.0166ZM118.482 97.479C120.816 95.9765 122.887 94.1083 124.247 92.5834L122.382 90.9188C121.16 92.2884 119.26 94.0054 117.129 95.3766L118.482 97.479ZM122.506 90.7982L116.996 95.4748L118.614 97.3808L124.124 92.7041L122.506 90.7982ZM126.367 90.1366C127.473 88.7817 128.468 87.3645 129.351 85.8975L127.208 84.6086C126.387 85.9741 125.461 87.2936 124.431 88.5556L126.367 90.1366ZM129.351 85.8975C131.292 82.6709 132.691 79.2049 133.546 75.6324L131.114 75.0506C130.318 78.3786 129.015 81.6055 127.208 84.6086L129.351 85.8975ZM133.546 75.6324C134.41 72.0195 134.718 68.2975 134.468 64.6029L131.974 64.7717C132.207 68.2157 131.92 71.6847 131.114 75.0506L133.546 75.6324ZM134.468 64.6029C134.25 61.3789 133.607 58.1751 132.536 55.0825L130.174 55.9001C131.171 58.7811 131.77 61.7665 131.974 64.7717L134.468 64.6029ZM132.536 55.0825C131.475 52.0142 129.993 49.0557 128.09 46.2964L126.032 47.7156C127.805 50.2864 129.185 53.042 130.174 55.9001L132.536 55.0825ZM128.09 46.2964C126.956 44.6521 125.673 43.0791 124.241 41.5961L122.443 43.3328C123.779 44.7169 124.976 46.1837 126.032 47.7156L128.09 46.2964ZM124.241 41.5961C122.138 39.4187 119.831 37.5559 117.378 36.0099L116.045 38.125C118.329 39.5648 120.48 41.3007 122.443 43.3328L124.241 41.5961ZM117.378 36.0099C114.742 34.3489 111.94 33.0543 109.045 32.1276L108.283 34.5085C110.98 35.3719 113.59 36.5778 116.045 38.125L117.378 36.0099ZM109.045 32.1276C105.42 30.967 101.65 30.3834 97.88 30.3792L97.8772 32.8792C101.392 32.8831 104.905 33.4272 108.283 34.5085L109.045 32.1276ZM97.88 30.3792C94.9464 30.3759 92.0121 30.7233 89.1451 31.4231L89.7379 33.8518C92.4084 33.2 95.1428 32.8761 97.8772 32.8792L97.88 30.3792ZM89.1451 31.4231C85.9173 32.211 82.775 33.4455 79.816 35.1286L81.052 37.3016C83.8062 35.7351 86.7316 34.5856 89.7379 33.8518L89.1451 31.4231ZM79.816 35.1286C77.2147 36.6082 74.7564 38.4338 72.5073 40.6058L74.2439 42.4041C76.3412 40.3788 78.6311 38.6787 81.052 37.3016L79.816 35.1286ZM72.5073 40.6058C69.6807 43.3354 67.3895 46.4141 65.6373 49.7102L67.8448 50.8836C69.4753 47.8163 71.6085 44.9491 74.2439 42.4041L72.5073 40.6058ZM65.6373 49.7102C63.9221 52.9368 62.7244 56.3701 62.0457 59.8862L64.5004 60.36C65.1327 57.0839 66.2483 53.887 67.8448 50.8836L65.6373 49.7102ZM62.0457 59.8862C61.3465 63.5086 61.198 67.2195 61.6022 70.8845L64.0871 70.6105C63.7104 67.1942 63.8488 63.7354 64.5004 60.36L62.0457 59.8862ZM61.6022 70.8845C62.1261 75.635 63.5787 80.3097 65.9652 84.6144L68.1517 83.4023C65.9291 79.3931 64.5755 75.0382 64.0871 70.6105L61.6022 70.8845ZM65.9652 84.6144C67.4923 87.369 69.4011 89.9707 71.6915 92.3426L73.4899 90.606C71.3525 88.3926 69.5738 85.9675 68.1517 83.4023L65.9652 84.6144ZM71.6915 92.3426C75.3283 96.1085 79.5766 98.9319 84.1281 100.804L85.079 98.4918C80.8408 96.7487 76.8825 94.1191 73.4899 90.606L71.6915 92.3426ZM84.1281 100.804C89.6618 103.08 95.6406 103.949 101.512 103.4L101.28 100.911C95.8067 101.422 90.2343 100.612 85.079 98.4918L84.1281 100.804ZM101.512 103.4C106.44 102.94 111.295 101.481 115.749 99.0166L114.538 96.8293C110.393 99.1232 105.873 100.482 101.28 100.911L101.512 103.4Z" fill="#47EAAF"/>
<path d="M84.395 66.479C83.3247 65.5149 81.6645 65.5889 80.6868 66.6443C79.7092 67.6997 79.7842 69.3368 80.8545 70.3009L93.2073 81.4282C94.7057 82.7779 97.0299 82.6743 98.3987 81.1967C98.4559 81.134 98.4559 81.134 98.5111 81.0695L116.14 60.1623C117.066 59.0632 116.914 57.4313 115.799 56.5174C114.685 55.6035 113.03 55.7537 112.103 56.8528L95.5296 76.5089L84.395 66.479Z" fill="#47EAAF"/>
</svg>
