<svg width="24" height="24" viewBox="0 0 24 24" fill="none" xmlns="http://www.w3.org/2000/svg">
<path d="M19 4H5C4.20435 4 3.44129 4.28095 2.87868 4.78105C2.31607 5.28115 2 5.95942 2 6.66667V17.3333C2 18.0406 2.31607 18.7189 2.87868 19.219C3.44129 19.719 4.20435 20 5 20H19C19.7956 20 20.5587 19.719 21.1213 19.219C21.6839 18.7189 22 18.0406 22 17.3333V6.66667C22 5.95942 21.6839 5.28115 21.1213 4.78105C20.5587 4.28095 19.7956 4 19 4ZM20 17.3333C20 17.5691 19.8946 17.7952 19.7071 17.9619C19.5196 18.1286 19.2652 18.2222 19 18.2222H5C4.73478 18.2222 4.48043 18.1286 4.29289 17.9619C4.10536 17.7952 4 17.5691 4 17.3333V6.66667C4 6.43092 4.10536 6.20483 4.29289 6.03813C4.48043 5.87143 4.73478 5.77778 5 5.77778H19C19.2652 5.77778 19.5196 5.87143 19.7071 6.03813C19.8946 6.20483 20 6.43092 20 6.66667V17.3333Z" fill="#909A95"/>
<path d="M11.7099 11.369L7.70994 7.81342C7.52164 7.64604 7.26624 7.552 6.99994 7.552C6.73364 7.552 6.47824 7.64604 6.28994 7.81342C6.10164 7.9808 5.99585 8.20782 5.99585 8.44453C5.99585 8.56174 6.02182 8.6778 6.07228 8.78608C6.12274 8.89437 6.1967 8.99276 6.28994 9.07564L9.58994 12.0001L6.28994 14.9245C6.19621 15.0072 6.12182 15.1055 6.07105 15.2138C6.02028 15.3221 5.99414 15.4383 5.99414 15.5556C5.99414 15.673 6.02028 15.7892 6.07105 15.8975C6.12182 16.0058 6.19621 16.1041 6.28994 16.1867C6.3829 16.2701 6.4935 16.3362 6.61536 16.3813C6.73722 16.4264 6.86793 16.4497 6.99994 16.4497C7.13195 16.4497 7.26266 16.4264 7.38452 16.3813C7.50638 16.3362 7.61698 16.2701 7.70994 16.1867L11.7099 12.6312C11.8037 12.5486 11.8781 12.4502 11.9288 12.3419C11.9796 12.2336 12.0057 12.1174 12.0057 12.0001C12.0057 11.8827 11.9796 11.7666 11.9288 11.6582C11.8781 11.5499 11.8037 11.4516 11.7099 11.369ZM16.9999 14.6667H12.9999C12.7347 14.6667 12.4804 14.7604 12.2928 14.9271C12.1053 15.0938 11.9999 15.3199 11.9999 15.5556C11.9999 15.7914 12.1053 16.0175 12.2928 16.1842C12.4804 16.3509 12.7347 16.4445 12.9999 16.4445H16.9999C17.2652 16.4445 17.5195 16.3509 17.707 16.1842C17.8946 16.0175 17.9999 15.7914 17.9999 15.5556C17.9999 15.3199 17.8946 15.0938 17.707 14.9271C17.5195 14.7604 17.2652 14.6667 16.9999 14.6667Z" fill="#909A95"/>
</svg>