<svg width="12" height="12" viewBox="0 0 12 12" fill="none" xmlns="http://www.w3.org/2000/svg">
<path d="M11.6121 4.22554L8.01478 3.67806L6.40666 0.264102C6.36274 0.170629 6.29048 0.0949614 6.20122 0.0489671C5.97736 -0.0667604 5.70532 0.0296792 5.59339 0.264102L3.98528 3.67806L0.38791 4.22554C0.288731 4.24038 0.198053 4.28934 0.128627 4.36352C0.0446959 4.45386 -0.00155415 4.5754 3.98784e-05 4.70142C0.0016339 4.82745 0.0509416 4.94766 0.137128 5.03563L2.73987 7.69291L2.12496 11.4452C2.11054 11.5324 2.11976 11.6222 2.15159 11.7043C2.18341 11.7864 2.23655 11.8575 2.305 11.9095C2.37344 11.9616 2.45444 11.9925 2.53882 11.9988C2.6232 12.0051 2.70757 11.9865 2.78238 11.9452L6.00003 10.1736L9.21768 11.9452C9.30553 11.9941 9.40754 12.0104 9.5053 11.9926C9.75183 11.9481 9.9176 11.7033 9.8751 11.4452L9.26019 7.69291L11.8629 5.03563C11.9338 4.96293 11.9805 4.86798 11.9947 4.76412C12.033 4.50447 11.8601 4.26412 11.6121 4.22554Z" fill="#04C290"/>
</svg>
