<svg width="13" height="12" viewBox="0 0 13 12" fill="none" xmlns="http://www.w3.org/2000/svg">
<path d="M7.3125 12C6.43229 12 5.61768 11.7701 4.86865 11.3103C4.11963 10.8504 3.52718 10.2254 3.09131 9.43527C2.65544 8.64509 2.4375 7.78571 2.4375 6.85714C2.4375 6.28571 2.57292 5.73884 2.84375 5.21652C3.11458 4.6942 3.50391 4.26562 4.01172 3.9308C4.51953 3.59598 5.07812 3.42857 5.6875 3.42857C6.11068 3.42857 6.4873 3.6317 6.81738 4.03795C7.14746 4.4442 7.3125 4.95536 7.3125 5.57143C7.29557 5.53571 7.27018 5.48884 7.23633 5.4308C7.20247 5.37277 7.13265 5.27009 7.02686 5.12277C6.92106 4.97545 6.80892 4.84598 6.69043 4.73438C6.57194 4.62277 6.42171 4.52009 6.23975 4.42634C6.05778 4.33259 5.8737 4.28571 5.6875 4.28571C5.2474 4.28571 4.86654 4.51116 4.54492 4.96205C4.22331 5.41295 4.0625 6.04464 4.0625 6.85714C4.0625 7.80357 4.37988 8.61161 5.01465 9.28125C5.64941 9.95089 6.41536 10.2857 7.3125 10.2857C8.04883 10.2857 8.72803 10.0938 9.3501 9.70982C9.97217 9.32589 10.4652 8.8058 10.8291 8.14955C11.193 7.4933 11.375 6.77679 11.375 6C11.375 4.88393 11.2163 3.86607 10.8989 2.94643C10.5815 2.02679 10.1986 1.33036 9.75 0.857143C10.9264 1.26786 11.7622 1.88839 12.2573 2.71875C12.7524 3.54911 13 4.64286 13 6C13 6.8125 12.8498 7.58929 12.5493 8.33036C12.2489 9.07143 11.8447 9.70982 11.3369 10.2455C10.8291 10.7812 10.224 11.2076 9.52148 11.5246C8.81901 11.8415 8.08268 12 7.3125 12ZM7.3125 8.57143C6.88932 8.57143 6.5127 8.3683 6.18262 7.96205C5.85254 7.5558 5.6875 7.04464 5.6875 6.42857C5.70443 6.46429 5.72982 6.51116 5.76367 6.5692C5.79753 6.62723 5.86735 6.72991 5.97314 6.87723C6.07894 7.02455 6.19108 7.15402 6.30957 7.26562C6.42806 7.37723 6.57829 7.47991 6.76025 7.57366C6.94222 7.66741 7.1263 7.71429 7.3125 7.71429C7.7526 7.71429 8.13346 7.48884 8.45508 7.03795C8.77669 6.58705 8.9375 5.95536 8.9375 5.14286C8.9375 4.19643 8.62012 3.38839 7.98535 2.71875C7.35059 2.04911 6.58464 1.71429 5.6875 1.71429C4.95117 1.71429 4.27197 1.90625 3.6499 2.29018C3.02783 2.67411 2.53483 3.1942 2.1709 3.85045C1.80697 4.5067 1.625 5.22321 1.625 6C1.625 7.11607 1.78369 8.13393 2.10107 9.05357C2.41846 9.97321 2.80143 10.6696 3.25 11.1429C2.07357 10.7321 1.23779 10.1116 0.742676 9.28125C0.247559 8.45089 0 7.35714 0 6C0 5.1875 0.150228 4.41071 0.450684 3.66964C0.751139 2.92857 1.15527 2.29018 1.66309 1.75446C2.1709 1.21875 2.77604 0.792411 3.47852 0.475446C4.18099 0.158482 4.91732 0 5.6875 0C6.56771 0 7.38232 0.229911 8.13135 0.689732C8.88037 1.14955 9.47282 1.77455 9.90869 2.56473C10.3446 3.35491 10.5625 4.21429 10.5625 5.14286C10.5625 5.71429 10.4271 6.26116 10.1562 6.78348C9.88542 7.3058 9.49609 7.73438 8.98828 8.0692C8.48047 8.40402 7.92188 8.57143 7.3125 8.57143Z" fill="#04C290"/>
</svg>
