<svg width="100" height="27" viewBox="0 0 100 27" fill="none" xmlns="http://www.w3.org/2000/svg">
    <circle cx="13.7615" cy="13.7617" r="10.0917" fill="white"/>
    <path fill-rule="evenodd" clip-rule="evenodd" d="M26.5109 13.3204C26.5109 20.6412 20.5762 26.5758 13.2554 26.5758C5.93466 26.5758 0 20.6412 0 13.3204C0 5.99961 5.93466 0.0649414 13.2554 0.0649414C20.5762 0.0649414 26.5109 5.99961 26.5109 13.3204ZM21.3589 11.2285C21.9046 11.6625 22.3732 12.1838 22.7463 12.7703C22.8861 12.9901 22.798 13.2769 22.5684 13.3998L20.8697 14.3087C20.6401 14.4316 20.3568 14.3426 20.2034 14.1322C20.0784 13.9608 19.9377 13.8014 19.7828 13.6561C19.7827 13.656 19.7825 13.656 19.7824 13.6562C19.7823 13.6563 19.7821 13.6563 19.782 13.6562C19.4441 13.3392 19.0449 13.0946 18.609 12.9375C18.519 12.905 18.4278 12.8765 18.3357 12.8518C17.9782 12.7561 17.738 13.1517 17.8767 13.4948C18.0025 13.8063 18.0988 14.1305 18.1633 14.4632C18.3474 15.4122 18.2664 16.3935 17.9292 17.2994C17.5919 18.2053 17.0115 19.0008 16.2517 19.5983C15.6158 20.0985 14.8748 20.4438 14.0873 20.6101C13.8325 20.6639 13.5972 20.477 13.5665 20.2185L13.3366 18.2867C13.3058 18.0281 13.4931 17.798 13.7405 17.7167C14.0021 17.6308 14.2478 17.4996 14.4661 17.3279C14.8086 17.0586 15.0702 16.7 15.2222 16.2917C15.3742 15.8834 15.4107 15.4411 15.3277 15.0133C15.253 14.6281 15.0839 14.2681 14.8365 13.9652C14.8191 13.944 14.7995 13.9247 14.7784 13.9071L12.9999 12.4277C12.7997 12.2612 12.7712 11.9625 12.9523 11.7753C13.4357 11.2759 13.9996 10.8595 14.6215 10.5442C14.8518 10.4274 15.0885 10.3252 15.3304 10.238C15.7282 10.0946 16.1406 9.99132 16.5613 9.93056C17.4072 9.80841 18.2692 9.86055 19.0943 10.0838C19.9193 10.307 20.69 10.6966 21.3589 11.2285ZM4.84231 15.4215L4.84233 15.4218L4.84235 15.4221C5.47869 15.9926 6.22497 16.4269 7.03532 16.6984C7.54145 16.868 8.06591 16.9718 8.59584 17.0083L8.65158 17.0119C9.12239 17.0402 9.59611 17.0153 10.0637 16.9369C10.9066 16.7957 11.7116 16.4835 12.4294 16.0197L12.4295 16.0194L12.4296 16.0191C12.8698 15.7346 13.2726 15.3959 13.6286 15.011C13.8054 14.8198 13.7701 14.5218 13.5662 14.3599L11.7582 12.924C11.7369 12.9071 11.7171 12.8885 11.6994 12.8679C11.4435 12.5699 11.2651 12.2125 11.1813 11.8275C11.0887 11.4017 11.1152 10.9587 11.2579 10.547C11.4006 10.1354 11.654 9.77101 11.9903 9.49397C12.2046 9.31739 12.4473 9.18065 12.7069 9.08883C12.9524 9.00198 13.1344 8.76766 13.0978 8.50983L12.8242 6.58378C12.7875 6.32595 12.5481 6.14451 12.2946 6.20407C11.5111 6.38816 10.7781 6.7502 10.1537 7.26461C9.40761 7.87925 8.84538 8.68763 8.52876 9.60096C8.21214 10.5143 8.15339 11.4972 8.35896 12.4417C8.47319 12.9666 8.66656 13.4683 8.93039 13.9304C8.98662 14.0289 8.91802 14.1536 8.80482 14.1462C8.60622 14.1332 8.40864 14.1027 8.2144 14.0548C7.76443 13.944 7.34189 13.7422 6.97273 13.4621C6.72913 13.2772 6.51218 13.0608 6.32731 12.8189C6.16914 12.6121 5.88395 12.5295 5.65718 12.6575L3.97948 13.6048C3.75271 13.7328 3.67121 14.0216 3.81592 14.2381C4.10725 14.674 4.45209 15.0715 4.84231 15.4215Z" fill="#FE6162"/>
    <path d="M97.3952 9.75192C96.4331 9.75192 95.6674 8.98618 95.6674 8.0241C95.6674 7.06202 96.4331 6.31592 97.3952 6.31592C98.3377 6.31592 99.1034 7.06202 99.1034 8.0241C99.1034 8.98618 98.3377 9.75192 97.3952 9.75192ZM95.903 21.1006V11.2834H98.9267V21.1006H95.903Z" fill="white"/>
    <path d="M87.785 21.3558C85.7038 21.3558 84.4079 20.1385 84.4079 18.2143C84.4079 16.4079 85.6841 15.2888 88.0402 15.1121L90.7891 14.8961V14.739C90.7891 13.7769 90.2 13.2665 89.1201 13.2665C87.8439 13.2665 87.1567 13.7573 87.1567 14.6409H84.6435C84.6435 12.4222 86.4695 10.9692 89.2772 10.9692C92.1242 10.9692 93.7342 12.5596 93.7342 15.3673V21.1005H91.0639L90.8676 19.8047C90.5534 20.7079 89.2576 21.3558 87.785 21.3558ZM88.8453 19.1175C90.0037 19.1175 90.8087 18.5481 90.8087 17.4289V16.8988L89.2772 17.0362C87.9617 17.154 87.4905 17.4486 87.4905 18.0769C87.4905 18.7837 87.9224 19.1175 88.8453 19.1175Z" fill="white"/>
    <path d="M76.9914 21.1007H73.9677V6.29639H76.9914V14.8177L80.1722 11.2835H83.9616L80.2704 15.1711L83.8438 21.1007H80.3489L78.1499 17.429L76.9914 18.6464V21.1007Z" fill="white"/>
    <path d="M65.0843 21.1005H62.0606V11.2834H64.9076L65.1039 12.3044C65.7126 11.4601 66.8317 10.9692 68.1079 10.9692C70.4444 10.9692 71.7992 12.4614 71.7992 15.0335V21.1005H68.7755V15.76C68.7755 14.523 68.0883 13.718 67.0477 13.718C65.85 13.718 65.0843 14.5034 65.0843 15.7207V21.1005Z" fill="white"/>
    <path d="M58.2608 9.75192C57.2987 9.75192 56.533 8.98618 56.533 8.0241C56.533 7.06202 57.2987 6.31592 58.2608 6.31592C59.2032 6.31592 59.969 7.06202 59.969 8.0241C59.969 8.98618 59.2032 9.75192 58.2608 9.75192ZM56.7686 21.1006V11.2834H59.7923V21.1006H56.7686Z" fill="white"/>
    <path d="M47.8852 21.1007H44.8615V6.29639H47.9048V12.3045C48.5135 11.4602 49.6326 10.9694 50.9088 10.9694C53.2453 10.9694 54.6001 12.4616 54.6001 15.0337V21.1007H51.5764V15.7601C51.5764 14.5232 50.8892 13.7182 49.8486 13.7182C48.6509 13.7182 47.8852 14.5035 47.8852 15.7209V21.1007Z" fill="white"/>
    <path d="M32.4648 10.7926C32.4648 8.16164 34.6835 6.29639 37.8053 6.29639C40.9272 6.29639 42.8906 8.02421 42.8906 10.773H39.7295C39.7295 9.75202 38.9637 9.12373 37.7661 9.12373C36.4702 9.12373 35.6455 9.71276 35.6455 10.6748C35.6455 11.5584 36.0971 11.9903 37.1181 12.2063L39.2975 12.6579C41.8893 13.188 43.1262 14.425 43.1262 16.7222C43.1262 19.5299 40.9272 21.3559 37.5893 21.3559C34.3497 21.3559 32.2488 19.6084 32.2488 16.8793H35.4099C35.4099 17.9395 36.1953 18.5286 37.609 18.5286C39.0423 18.5286 39.9455 17.9592 39.9455 17.0364C39.9455 16.2313 39.5724 15.819 38.6103 15.6227L36.3916 15.1711C33.7999 14.641 32.4648 13.1684 32.4648 10.7926Z" fill="white"/>
</svg>
