<svg width="134" height="36" viewBox="0 0 134 36" fill="none" xmlns="http://www.w3.org/2000/svg">
    <path fill-rule="evenodd" clip-rule="evenodd" d="M35.2348 17.7036C35.2348 27.4334 27.3472 35.3209 17.6174 35.3209C7.88757 35.3209 0 27.4334 0 17.7036C0 7.97375 7.88757 0.0861816 17.6174 0.0861816C27.3472 0.0861816 35.2348 7.97375 35.2348 17.7036ZM28.3871 14.9231C29.1124 15.4999 29.7352 16.1928 30.231 16.9722C30.4167 17.2643 30.2998 17.6455 29.9946 17.8088L27.7368 19.0169C27.4317 19.1802 27.0552 19.0619 26.8513 18.7822C26.6853 18.5546 26.4982 18.3428 26.2925 18.1497L26.2924 18.1497L26.2923 18.1497C25.8432 17.7283 25.3126 17.4032 24.7332 17.1943C24.6133 17.1511 24.4918 17.1131 24.3691 17.0802C23.894 16.9531 23.5748 17.4789 23.7591 17.9349C23.9265 18.3491 24.0544 18.78 24.1403 19.2223C24.3849 20.4836 24.2773 21.7878 23.8291 22.9918C23.3809 24.1959 22.6094 25.253 21.5996 26.0473C20.7544 26.712 19.7696 27.1709 18.723 27.3919C18.3843 27.4634 18.0716 27.2151 18.0307 26.8715L17.7252 24.304C17.6844 23.9603 17.9332 23.6545 18.2621 23.5465C18.6097 23.4323 18.9363 23.2579 19.2264 23.0297C19.6816 22.6717 20.0293 22.1952 20.2313 21.6525C20.4333 21.1098 20.4819 20.522 20.3716 19.9535C20.272 19.4404 20.0466 18.9611 19.7167 18.5581C19.6937 18.53 19.6677 18.5045 19.6398 18.4813L17.2783 16.5168C17.0122 16.2955 16.9743 15.8985 17.215 15.6498C17.6998 15.1488 18.2456 14.7108 18.8394 14.3459L18.8395 14.3457L18.8395 14.3456C19.8073 13.7509 20.8865 13.3603 22.0107 13.198C23.135 13.0356 24.2806 13.1049 25.3772 13.4016C26.4737 13.6983 27.498 14.216 28.3871 14.9231ZM6.4357 20.4966L6.4357 20.4966L6.4357 20.4967C7.28149 21.255 8.27341 21.8323 9.35051 22.1932C10.2334 22.489 11.1583 22.6342 12.0865 22.6243C12.2345 22.6227 12.3826 22.6172 12.5304 22.6077C12.8127 22.5896 13.0945 22.5571 13.3745 22.5101C14.4949 22.3223 15.5649 21.9074 16.519 21.2909L16.519 21.2909L16.519 21.2908C17.1044 20.9126 17.6401 20.4623 18.1134 19.9505C18.3484 19.6964 18.3015 19.3004 18.0305 19.0851L15.625 17.1747C15.5966 17.1521 15.57 17.1272 15.5464 17.0997C15.2075 16.7042 14.9713 16.2301 14.8602 15.7195C14.737 15.1537 14.7722 14.5649 14.9619 14.0177C15.1515 13.4706 15.4883 12.9863 15.9353 12.6181C16.2202 12.3835 16.5427 12.2017 16.8877 12.0797C17.214 11.9642 17.4559 11.6528 17.4072 11.3102L17.0436 8.7503C16.9949 8.40762 16.6767 8.16648 16.3398 8.24565C15.2984 8.49031 14.3242 8.97148 13.4943 9.65517C12.5027 10.4721 11.7555 11.5465 11.3347 12.7603C10.9139 13.9742 10.8358 15.2806 11.109 16.5359C11.2048 16.9761 11.3425 17.404 11.5192 17.8143C11.7137 18.266 11.4066 18.7989 10.9288 18.6825L10.9167 18.6796C10.3187 18.5322 9.75709 18.2642 9.26647 17.8918C8.9427 17.6461 8.65435 17.3584 8.40865 17.037C8.19844 16.7621 7.8194 16.6523 7.51801 16.8225L5.28823 18.0814C4.98683 18.2516 4.87851 18.6354 5.07085 18.9232C5.45822 19.5027 5.91678 20.0313 6.4357 20.4966Z" fill="#FE6162"/>
    <path d="M43.1485 14.3C43.1485 10.8032 46.0973 8.32414 50.2465 8.32414C54.3956 8.32414 57.0051 10.6205 57.0051 14.2739H52.8038C52.8038 12.9169 51.7861 12.0819 50.1943 12.0819C48.472 12.0819 47.376 12.8647 47.376 14.1434C47.376 15.3177 47.9762 15.8918 49.3331 16.1788L52.2297 16.779C55.6743 17.4836 57.3183 19.1276 57.3183 22.1807C57.3183 25.9124 54.3956 28.3392 49.9594 28.3392C45.6537 28.3392 42.8615 26.0168 42.8615 22.3895H47.0628C47.0628 23.7987 48.1066 24.5815 49.9855 24.5815C51.8905 24.5815 53.0909 23.8248 53.0909 22.5983C53.0909 21.5284 52.595 20.9804 51.3164 20.7194L48.3676 20.1192C44.923 19.4146 43.1485 17.4575 43.1485 14.3ZM63.6431 28H59.6245V8.32414H63.6692V16.3093C64.4782 15.1872 65.9656 14.5348 67.6618 14.5348C70.7672 14.5348 72.5677 16.5181 72.5677 19.9365V28H68.5491V20.9021C68.5491 19.2581 67.6357 18.1882 66.2527 18.1882C64.6609 18.1882 63.6431 19.232 63.6431 20.8499V28ZM77.4331 12.9169C76.1544 12.9169 75.1367 11.8992 75.1367 10.6205C75.1367 9.34185 76.1544 8.35023 77.4331 8.35023C78.6857 8.35023 79.7034 9.34185 79.7034 10.6205C79.7034 11.8992 78.6857 12.9169 77.4331 12.9169ZM75.4498 28V14.9523H79.4685V28H75.4498ZM86.502 28H82.4833V14.9523H86.2672L86.5281 16.3093C87.3371 15.1872 88.8245 14.5348 90.5207 14.5348C93.626 14.5348 95.4266 16.5181 95.4266 19.9365V28H91.4079V20.9021C91.4079 19.2581 90.4946 18.1882 89.1116 18.1882C87.5197 18.1882 86.502 19.232 86.502 20.8499V28ZM102.327 28H98.3087V8.32414H102.327V19.6495L106.555 14.9523H111.591L106.685 20.1192L111.435 28H106.79L103.867 23.1202L102.327 24.7381V28ZM116.673 28.3392C113.907 28.3392 112.184 26.7213 112.184 24.164C112.184 21.7632 113.881 20.2758 117.012 20.0409L120.665 19.7539V19.5451C120.665 18.2664 119.883 17.588 118.447 17.588C116.751 17.588 115.838 18.2404 115.838 19.4146H112.498C112.498 16.4659 114.924 14.5348 118.656 14.5348C122.44 14.5348 124.58 16.6485 124.58 20.3802V28H121.031L120.77 26.2777C120.352 27.4781 118.63 28.3392 116.673 28.3392ZM118.082 25.3644C119.622 25.3644 120.692 24.6076 120.692 23.1202V22.4156L118.656 22.5983C116.908 22.7548 116.281 23.1463 116.281 23.9813C116.281 24.9208 116.856 25.3644 118.082 25.3644ZM129.445 12.9169C128.167 12.9169 127.149 11.8992 127.149 10.6205C127.149 9.34185 128.167 8.35023 129.445 8.35023C130.698 8.35023 131.716 9.34185 131.716 10.6205C131.716 11.8992 130.698 12.9169 129.445 12.9169ZM127.462 28V14.9523H131.481V28H127.462Z" fill="#1E1E1E"/>
</svg>
